<?xml version="1.0" encoding="UTF-8" standalone="no"?>
<!-- Created with Inkscape (http://www.inkscape.org/) -->

<svg
   xmlns:dc="http://purl.org/dc/elements/1.1/"
   xmlns:cc="http://creativecommons.org/ns#"
   xmlns:rdf="http://www.w3.org/1999/02/22-rdf-syntax-ns#"
   xmlns:svg="http://www.w3.org/2000/svg"
   xmlns="http://www.w3.org/2000/svg"
   xmlns:sodipodi="http://sodipodi.sourceforge.net/DTD/sodipodi-0.dtd"
   xmlns:inkscape="http://www.inkscape.org/namespaces/inkscape"
   id="svg3093"
   version="1.1"
   inkscape:version="0.48.3.1 r9886"
   width="500"
   height="333"
   sodipodi:docname="Flag_and_map_of_Japan.svg">
  <metadata
     id="metadata3099">
    <rdf:RDF>
      <cc:Work
         rdf:about="">
        <dc:format>image/svg+xml</dc:format>
        <dc:type
           rdf:resource="http://purl.org/dc/dcmitype/StillImage" />
        <dc:title />
      </cc:Work>
    </rdf:RDF>
  </metadata>
  <defs
     id="defs3097" />
  <sodipodi:namedview
     pagecolor="#ffffff"
     bordercolor="#666666"
     borderopacity="1"
     objecttolerance="10"
     gridtolerance="10"
     guidetolerance="10"
     inkscape:pageopacity="1"
     inkscape:pageshadow="2"
     inkscape:window-width="1231"
     inkscape:window-height="1000"
     id="namedview3095"
     showgrid="false"
     inkscape:zoom="2"
     inkscape:cx="221.10097"
     inkscape:cy="172.51976"
     inkscape:window-x="49"
     inkscape:window-y="24"
     inkscape:window-maximized="1"
     inkscape:current-layer="g2982" />
  <g
     id="g2982"
     transform="matrix(2.9435337,0,0,2.9435337,0,-647.19672)">
    <g
       id="g2994"
       transform="matrix(0.33844736,0,0,0.33844736,0.33077586,220.29703)">
      <path
         inkscape:connector-curvature="0"
         id="path2998"
         d="M 0,166.5 0,0 250,0 500,0 500,166.5 500,333 250,333 0,333 0,166.5 z"
         style="fill:#fdfdfd" />
      <path
         inkscape:connector-curvature="0"
         id="path2996"
         d="M 134.13965,302.46405 C 131.63745,300.35859 131,299.05299 131,296.03355 c 0,-2.14775 0.64967,-4.32784 1.5,-5.03355 0.825,-0.68469 1.5,-2.72221 1.5,-4.52783 0,-2.28732 1.06145,-4.55342 3.5,-7.47217 3.85018,-4.60837 4.55323,-8.89131 1.82659,-11.12756 -1.47764,-1.21187 -1.6089,-1.13845 -1.12191,0.62756 0.30333,1.1 0.71887,2.61051 0.92341,3.35669 0.21096,0.76954 -1.29824,2.24301 -3.48721,3.40466 -7.21965,3.83137 -10.28119,0.73435 -11.13231,-11.26135 -0.38911,-5.48406 1.48676,-8 5.96476,-8 2.19942,0 4.36143,-1.06629 7.09502,-3.49922 2.16241,-1.92457 4.6629,-3.49957 5.55665,-3.5 1.00832,-4.8e-4 1.85464,-1.14896 2.23011,-3.02635 0.79365,-3.96821 4.88756,-7.97443 8.149,-7.97443 1.62745,0 3.97475,-1.34218 6.29546,-3.59974 2.03523,-1.97985 5.05043,-4.28708 6.70043,-5.12717 1.65,-0.8401 3.12448,-1.63219 3.27662,-1.76022 0.15214,-0.12803 -1.37524,-2.6583 -3.39418,-5.62282 -4.94696,-7.2639 -9.73428,-17.73001 -13.03149,-28.48966 -2.53929,-8.28633 -2.72746,-10.14226 -2.72746,-26.90039 0,-16.7313 0.19217,-18.63435 2.72643,-27 10.63881,-35.11889 37.1964,-60.922698 72.17356,-70.125066 8.40674,-2.211781 12.17939,-2.633184 23.97652,-2.678159 15.5637,-0.05934 25.87605,1.86395 38.55307,7.190268 l 6.84044,2.874051 0.30325,-3.630547 c 0.27464,-3.288166 0.60892,-3.660038 3.54465,-3.943265 1.78278,-0.171995 4.19694,0.356558 5.36481,1.174561 3.49569,2.448482 4.89378,1.043151 4.89378,-4.919142 0,-3.60431 0.46741,-5.604895 1.43616,-6.147039 1.89721,-1.061729 2.50575,-17.803688 0.76259,-20.979921 C 308.43817,33.285659 311.16255,28 316.51578,28 c 2.03229,0 8.71099,6.329996 13.46952,12.766249 3.6837,4.982473 13.06841,11.137301 16.09861,10.558042 1.58343,-0.302692 3.03095,0.109186 3.84935,1.095296 2.33002,2.807499 5.36449,1.77725 8.89462,-3.019857 3.7845,-5.142778 5.557,-6.155127 7.68485,-4.389161 2.07286,1.720314 1.85456,4.707045 -0.56925,7.78842 -2.23612,2.842764 -2.02532,5.62028 0.74777,9.852546 1.29554,1.977243 2.14532,2.323633 4.45563,1.816205 4.31049,-0.946743 5.06246,2.142802 1.27147,5.223997 -6.6216,5.381821 -11.61481,8.078822 -16.13952,8.717496 -7.08054,0.999433 -10.93882,4.745282 -13.07756,12.696473 -1.63414,6.07526 -1.88296,6.410026 -4.98689,6.709612 C 336.2595,98.004 333.65274,97.350309 331.72372,96.187672 321.09778,89.783325 314,86.640497 314,88.339776 c 0,0.186878 3.32427,3.762551 7.38727,7.945942 12.41144,12.779212 19.77074,25.414512 25.29549,43.430202 2.4999,8.15194 2.69375,10.07943 2.69375,26.78408 0,16.70465 -0.19385,18.63214 -2.69375,26.78408 -4.98673,16.26125 -10.95717,27.174 -21.68909,39.64321 -20.32804,23.61875 -55.49225,37.10758 -86.02684,32.99948 -5.20676,-0.70051 -11.08403,-1.3081 -13.06061,-1.35021 -1.97658,-0.0421 -4.22771,-0.60173 -5.0025,-1.2436 -0.77479,-0.64187 -3.65759,-2.04811 -6.40622,-3.12498 l -4.9975,-1.95795 -2.75082,2.81204 c -1.51295,1.54663 -3.18931,3.96537 -3.72525,5.37499 -1.29657,3.41025 -3.59526,3.23334 -7.12809,-0.54857 l -2.90659,-3.11151 -3.9975,3.61151 C 186.79312,268.37482 184.54553,270 183.99712,270 183.4487,270 183,271.5199 183,273.37756 c 0,1.85765 -0.58932,3.86665 -1.30961,4.46443 -1.33383,1.10698 -4.86288,0.49759 -7.77156,-1.34199 C 172.04216,275.31312 169,269.41473 169,266.96299 c 0,-0.95135 -0.9,-1.96508 -2,-2.25274 -3.11252,-0.81394 -2.35719,-3.53417 1.41951,-5.11217 1.88073,-0.78582 3.96071,-2.47936 4.62219,-3.76342 0.66147,-1.28406 2.35688,-3.57216 3.76758,-5.08466 1.75092,-1.87727 2.10883,-2.75433 1.12781,-2.76365 -0.7904,-0.008 -2.44959,-0.285 -3.68709,-0.61664 -1.87898,-0.50354 -2.25,-0.20447 -2.25,1.81366 0,3.55592 -1.84091,4.81663 -7.03333,4.81663 -5.55116,0 -6.67929,0.81256 -3.86494,2.78381 1.52037,1.06491 1.9745,2.24343 1.66833,4.32949 -0.3037,2.06924 0.22594,3.47377 1.90463,5.05081 2.31068,2.17078 3.38374,8.83589 1.42255,8.83589 -1.3549,0 -8.09724,10.56184 -8.09724,12.68428 0,2.19148 -3.62983,9.38324 -5.4715,10.84065 -0.71234,0.56372 -1.46476,1.91372 -1.67205,3 -0.58429,3.06199 -4.64508,3.16121 -5.79315,0.14155 -1.4546,-3.82587 -2.87459,-4.04163 -2.71024,-0.4118 0.12677,2.79978 -0.21143,3.28691 -2.46341,3.54827 -1.68665,0.19574 -3.72135,-0.6319 -5.75,-2.3389 z m 5.07128,-9.21405 c 1.69777,-2.0525 4.62863,-1.4245 6.47043,1.38644 l 1.72746,2.63644 2.7885,-3.34017 c 1.53367,-1.83709 3.08458,-4.93599 3.44645,-6.88644 0.70839,-3.81806 2.09974,-6.38768 6.69242,-12.35994 l 2.93272,-3.81367 -3.26091,-3.36441 c -2.49788,-2.57716 -3.11915,-3.92926 -2.65505,-5.77837 0.487,-1.94035 0.0704,-2.67713 -2.12354,-3.75532 -1.50118,-0.73775 -3.66795,-2.41097 -4.81506,-3.71826 -2.65402,-3.02465 -5.62825,-2.39612 -10.91408,2.30645 -2.61845,2.32951 -4.85242,3.43742 -6.93192,3.43778 -2.90348,5e-4 -3.0609,0.202 -2.92965,3.75 0.34985,9.45786 0.24901,9.09159 2.35171,8.54173 1.53783,-0.40216 1.85195,-1.07217 1.38148,-2.94668 -0.74477,-2.9674 1.97498,-6.34558 5.10878,-6.34558 3.36407,0 6.68269,4.26967 7.25328,9.33193 0.46585,4.13309 0.20349,4.78063 -3.61582,8.92409 -2.92617,3.17452 -4.11813,5.34052 -4.11813,7.48337 0,1.65864 -0.675,3.57592 -1.5,4.26061 -1.826,1.51544 -1.93862,4.15675 -0.25,5.86321 1.00355,1.01415 1.31674,0.70855 1.58849,-1.55 0.18616,-1.54727 0.80376,-3.37571 1.37244,-4.06321 z M 179,271.02568 c 0,-2.22983 0.68834,-3.33386 2.75,-4.41072 1.5125,-0.79003 4.07169,-2.82658 5.68709,-4.52568 3.39797,-3.57404 7.38215,-4.05149 9.96769,-1.1945 1.67819,1.85438 1.76145,1.8468 3.90499,-0.35545 6.76332,-6.94859 6.91469,-7.20705 5.52438,-9.43329 C 205.75477,249.37768 204.52858,249 199.99658,249 c -4.7677,0 -5.65721,0.30746 -6.50945,2.25 -0.76632,1.7467 -1.95434,2.31959 -5.31103,2.56111 -2.37815,0.17111 -4.89735,-0.1648 -5.59821,-0.74647 -1.35316,-1.12302 -2.10881,-0.45875 -6.18304,5.43536 -3.60624,5.21707 -3.62613,8.73586 -0.0806,14.25 1.40122,2.1792 2.68571,1.35451 2.68571,-1.72432 z m 49.58581,-16.91452 c 1.51385,-1.19079 3.23884,-2.00135 3.83332,-1.80125 0.59448,0.20011 1.62482,-0.9203 2.28964,-2.48979 0.84673,-1.99892 2.15982,-3.04384 4.38406,-3.48869 l 3.17529,-0.63505 -2.63406,-1.38013 c -1.44873,-0.75907 -2.62728,-1.92825 -2.619,-2.59819 0.0243,-1.9627 2.55602,-8.68914 3.70173,-9.83485 1.71408,-1.71408 5.74867,-0.62434 6.07308,1.64033 0.39399,2.75028 4.33301,4.19893 12.89809,4.74352 7.25759,0.46145 9.31204,-0.23094 9.31204,-3.13832 0,-4.15395 8.26342,-7.21182 9.65923,-3.57439 0.46139,1.20237 1.01707,0.86271 2.45391,-1.5 1.18048,-1.94114 2.68287,-3.06224 4.12216,-3.07599 1.56458,-0.0149 2.72842,-1.01967 3.7647,-3.25 0.94119,-2.02567 2.35872,-3.35009 3.80504,-3.55512 4.58365,-0.64978 6.86649,4.01238 3.57591,7.30295 -0.89047,0.89048 -1.35135,1.88674 -1.02416,2.21393 1.06404,1.06404 3.6318,-1.86491 4.44117,-5.06588 0.52473,-2.07525 1.86057,-3.66647 3.97857,-4.7392 l 3.1886,-1.61495 -2.47838,-4.88505 C 301.97931,208.44271 301.18665,203 302.97432,203 304.28453,203 307,197.61347 307,195.01448 c 0,-1.14667 0.65803,-3.08913 1.46229,-4.31658 1.27103,-1.93984 1.27677,-2.75271 0.0439,-6.21482 C 305.3724,175.68293 307.42881,168 312.91803,168 c 2.44446,0 2.7439,-0.31768 2.33172,-2.47383 -0.31835,-1.66534 0.53801,-4.00001 2.62033,-7.14374 4.52711,-6.83468 4.88274,-10.28696 1.74285,-16.91851 C 318.17582,138.4287 317,135.33983 317,134.59978 c 0,-1.50486 -3.28674,-9.61012 -5.63401,-13.89374 -1.11735,-2.03909 -1.27986,-3.52507 -0.60147,-5.5 C 311.9455,111.76793 311.33803,110 308.97568,110 c -2.18336,0 -3.45298,1.58698 -1.99199,2.48992 0.55897,0.34546 1.01631,1.69623 1.01631,3.00171 0,4.36646 -6.70891,4.54688 -8.78932,0.23637 -0.93491,-1.93709 -1.08416,-1.6108 -1.143,2.49895 -0.0558,3.89798 -0.5061,5.01421 -2.56768,6.36501 -2.83846,1.85983 -3.23493,4.55321 -0.94944,6.45 2.38853,1.9823 1.43627,6.26361 -1.55056,6.97125 l -2.5,0.5923 2.81164,1.85265 c 2.56154,1.68784 2.75163,2.21687 2.13694,5.94724 -0.37109,2.25203 -1.05696,4.57038 -1.52416,5.1519 -0.4672,0.58151 -1.5205,3.50651 -2.34068,6.5 -3.82799,13.97143 -6.91402,20.56481 -10.70417,22.86974 -1.63291,0.99303 -4.08581,3.31937 -5.4509,5.16964 -2.83725,3.84568 -9.90373,8.90332 -12.4396,8.90332 -0.94049,0 -3.46027,1.19273 -5.59952,2.65052 -2.22852,1.51861 -5.38422,2.693 -7.38955,2.75 l -3.5,0.0995 0.25827,-4.9075 c 0.14205,-2.69913 0.76867,-5.5225 1.3925,-6.27417 1.85208,-2.23162 0.18734,-2.65894 -2.59696,-0.6666 -2.17383,1.55549 -2.49063,2.38259 -1.99998,5.2214 0.46926,2.71509 0.0304,4.08068 -2.24978,7 -6.56514,8.40548 -8.66559,12.16533 -7.46625,13.36467 0.63921,0.63921 1.1622,2.21319 1.1622,3.49774 0,1.82187 -1.00794,2.76759 -4.58291,4.3 -4.85423,2.08077 -9.39282,2.53465 -10.96709,1.09676 -0.53736,-0.4908 -6.16228,-0.44185 -12.95,0.11271 -6.6,0.53921 -14.925,1.08443 -18.5,1.21158 -8.99487,0.31992 -8.57175,0.19219 -12.11691,3.65769 -1.75222,1.71285 -4.58024,3.71172 -6.28447,4.44192 -1.70424,0.73021 -5.01203,3.15378 -7.35064,5.38573 -2.36021,2.25254 -5.2522,4.06488 -6.5,4.07338 -2.79978,0.0191 -4.13442,0.88766 -5.57726,3.62968 -1.97244,3.74848 1.05668,4.83898 12.51592,4.50581 5.08459,-0.14783 5.19281,-0.21475 5.5,-3.4008 0.30919,-3.20673 0.37992,-3.2487 5.31336,-3.15209 3.03735,0.0595 5.2931,-0.39401 5.74669,-1.15529 0.48913,-0.82093 2.09657,-1.07214 4.66017,-0.72829 2.689,0.36067 4.63699,0.0182 6.22582,-1.09471 1.27178,-0.89079 3.53565,-1.61962 5.03081,-1.61962 1.49516,0 3.01582,-0.48111 3.37923,-1.06912 0.36342,-0.58802 2.30247,-0.96379 4.30902,-0.83505 2.00654,0.12874 5.12919,-0.10495 6.93922,-0.51933 2.16958,-0.49668 3.80154,-0.32966 4.78939,0.49018 1.29077,1.07125 0.93864,1.76559 -2.54096,5.01026 -3.58941,3.34707 -5.66098,7.04329 -3.03939,5.42306 0.55,-0.33992 1,-0.0864 1,0.56343 0,0.88042 0.3822,0.86426 1.5,-0.0634 0.825,-0.68469 1.5,-2.01135 1.5,-2.94813 0,-2.39656 4.56071,-6.43442 6.44912,-5.70977 1.73469,0.66567 2.1579,6.1647 0.55088,7.1579 -0.55,0.33992 -1,2.48707 -1,4.77145 0,3.33136 0.54429,4.58857 2.75,6.35197 2.55577,2.04327 2.79709,2.07334 3.41668,0.42568 0.36668,-0.97507 1.90529,-2.74715 3.41913,-3.93794 z M 190,248 c 0,-1.65217 -0.66667,-2 -3.83333,-2 -4.76824,0 -5.83923,0.94293 -2.91074,2.56269 C 186.89227,250.57398 190,250.31469 190,248 z M 297,103.37157 c 0,-0.77795 1.03583,-1.8864 2.30184,-2.46324 l 2.30185,-1.048787 -3.30185,-3.500974 C 296.47795,94.424684 295,91.795811 295,90.485502 c 0,-4.403387 7.26457,-7.281491 10.01478,-3.967692 1.11704,1.345953 1.6469,1.28934 4.67961,-0.5 3.56342,-2.10247 9.21752,-2.678406 10.85561,-1.105771 0.5225,0.501622 3.65,2.316794 6.95,4.033716 3.3,1.716922 6.80031,3.669004 7.77847,4.337961 2.20476,1.507828 3.3218,0.04175 4.27731,-5.613854 0.45481,-2.691992 1.96047,-5.196268 4.94334,-8.221981 3.65906,-3.711609 5.07631,-4.451216 9.64511,-5.033408 5.44129,-0.693372 6.90354,-1.242315 10.20687,-3.831757 1.7818,-1.396729 1.75403,-1.578329 -0.7417,-4.850398 -1.42604,-1.869639 -2.87521,-4.81137 -3.22037,-6.537182 -0.5534,-2.76701 -0.86329,-3.011687 -2.62215,-2.070374 -1.09702,0.587107 -3.40585,0.812349 -5.13073,0.500539 -1.72488,-0.311811 -4.91249,-0.864667 -7.08357,-1.228569 -4.58076,-0.767795 -15.45101,-8.320119 -20.24825,-14.067878 -8.07044,-9.669497 -9.2496,-10.783588 -10.3008,-9.732382 -0.73257,0.73257 -0.60011,2.124806 0.43872,4.611064 1.90754,4.565396 1.05051,23.666143 -1.09888,24.490944 C 313.454,62.03976 313,63.995216 313,67.484544 c 0,3.016423 -0.53461,5.698276 -1.25,6.270622 -2.59657,2.077371 -5.79355,2.369593 -8.91081,0.814498 C 301.10863,73.706349 299.56515,73 299.40923,73 c -0.15592,0 -0.025,1.592756 0.29089,3.539458 0.45705,2.816507 0.10222,4.042034 -1.73719,6 C 296.69157,83.892756 295.06519,85 294.34874,85 c -0.71645,0 -2.05294,1.145106 -2.96997,2.54468 -1.60857,2.454992 -1.57227,2.643908 1.02995,5.360047 2.46276,2.570562 2.63779,3.263959 2.01293,7.974343 -0.59947,4.51909 -0.48202,5.08132 0.947,4.53296 0.89724,-0.3443 1.63135,-1.26251 1.63135,-2.04046 z"
         style="fill:#ebb8c4" />
      <path
         inkscape:connector-curvature="0"
         id="path2994"
         d="M 134.13965,302.46405 C 131.63745,300.35859 131,299.05299 131,296.03355 c 0,-2.14775 0.64967,-4.32784 1.5,-5.03355 0.825,-0.68469 1.5,-2.72221 1.5,-4.52783 0,-2.28732 1.06145,-4.55342 3.5,-7.47217 3.85018,-4.60837 4.55323,-8.89131 1.82659,-11.12756 -1.47764,-1.21187 -1.6089,-1.13845 -1.12191,0.62756 0.30333,1.1 0.71887,2.61051 0.92341,3.35669 0.21096,0.76954 -1.29824,2.24301 -3.48721,3.40466 -7.21965,3.83137 -10.28119,0.73435 -11.13231,-11.26135 -0.38911,-5.48406 1.48676,-8 5.96476,-8 2.19942,0 4.36143,-1.06629 7.09502,-3.49922 2.16241,-1.92457 4.6629,-3.49957 5.55665,-3.5 1.00832,-4.8e-4 1.85464,-1.14896 2.23011,-3.02635 0.79365,-3.96821 4.88756,-7.97443 8.149,-7.97443 1.62745,0 3.97475,-1.34218 6.29546,-3.59974 2.03523,-1.97985 5.05043,-4.28708 6.70043,-5.12717 1.65,-0.8401 3.15588,-1.66359 3.34639,-1.82999 0.19052,-0.1664 -1.09083,-2.39148 -2.84743,-4.94461 -4.89751,-7.11828 -11.60355,-22.05563 -14.14109,-31.49849 -1.92954,-7.18037 -2.28416,-10.98402 -2.28416,-24.5 0,-18.7915 1.74444,-27.01681 8.98197,-42.35152 8.0872,-17.13494 19.82646,-30.636571 35.8518,-41.234078 27.31393,-18.062625 60.47382,-21.318192 92.0908,-9.041277 l 7.39619,2.871947 0.30276,-3.622536 c 0.27408,-3.279236 0.60995,-3.652172 3.54418,-3.935254 1.78278,-0.171995 4.19694,0.356558 5.36481,1.174561 3.49569,2.448482 4.89378,1.043151 4.89378,-4.919142 0,-3.60431 0.46741,-5.604895 1.43616,-6.147039 1.89721,-1.061729 2.50575,-17.803688 0.76259,-20.979921 C 308.43817,33.285659 311.16255,28 316.51578,28 c 2.03229,0 8.71099,6.329996 13.46952,12.766249 3.6837,4.982473 13.06841,11.137301 16.09861,10.558042 1.58343,-0.302692 3.03095,0.109186 3.84935,1.095296 2.33002,2.807499 5.36449,1.77725 8.89462,-3.019857 3.7845,-5.142778 5.557,-6.155127 7.68485,-4.389161 2.07286,1.720314 1.85456,4.707045 -0.56925,7.78842 -2.23612,2.842764 -2.02532,5.62028 0.74777,9.852546 1.29554,1.977243 2.14532,2.323633 4.45563,1.816205 4.31049,-0.946743 5.06246,2.142802 1.27147,5.223997 -6.6216,5.381821 -11.61481,8.078822 -16.13952,8.717496 -7.08054,0.999433 -10.93882,4.745282 -13.07756,12.696473 -1.63414,6.07526 -1.88296,6.410026 -4.98689,6.709612 -1.95488,0.188682 -4.56164,-0.465009 -6.49066,-1.627646 -11.57478,-6.97622 -17.73218,-9.560815 -17.7191,-7.437672 0.003,0.4125 2.97264,3.675 6.60021,7.25 8.69716,8.5711 14.4556,16.74124 19.83949,28.14848 7.23753,15.33471 8.98197,23.56002 8.98197,42.35152 0,19.07589 -1.77324,27.21498 -9.3683,43 -5.80398,12.06256 -9.76615,17.67443 -19.30907,27.34868 -21.13807,21.42896 -51.09072,32.188 -80.49892,28.91533 -5.3625,-0.59676 -11.61445,-1.12529 -13.89323,-1.17451 -2.27878,-0.0492 -4.97878,-0.79576 -6,-1.65896 -1.02122,-0.8632 -3.82011,-2.30947 -6.21976,-3.21393 l -4.36298,-1.64448 -2.87976,2.87976 c -1.58387,1.58387 -3.32189,4.04264 -3.86227,5.46393 -1.30437,3.43078 -3.597,3.26136 -7.13616,-0.52733 l -2.90659,-3.11151 -3.9975,3.61151 C 186.79312,268.37482 184.54553,270 183.99712,270 183.4487,270 183,271.5199 183,273.37756 c 0,1.85765 -0.58932,3.86665 -1.30961,4.46443 -1.33383,1.10698 -4.86288,0.49759 -7.77156,-1.34199 C 172.04216,275.31312 169,269.41473 169,266.96299 c 0,-0.95135 -0.9,-1.96508 -2,-2.25274 -3.11252,-0.81394 -2.35719,-3.53417 1.41951,-5.11217 1.88073,-0.78582 3.96071,-2.47936 4.62219,-3.76342 0.66147,-1.28406 2.35688,-3.57216 3.76758,-5.08466 1.75092,-1.87727 2.10883,-2.75433 1.12781,-2.76365 -0.7904,-0.008 -2.44959,-0.285 -3.68709,-0.61664 -1.87898,-0.50354 -2.25,-0.20447 -2.25,1.81366 0,3.55592 -1.84091,4.81663 -7.03333,4.81663 -5.55116,0 -6.67929,0.81256 -3.86494,2.78381 1.52037,1.06491 1.9745,2.24343 1.66833,4.32949 -0.3037,2.06924 0.22594,3.47377 1.90463,5.05081 2.31068,2.17078 3.38374,8.83589 1.42255,8.83589 -1.3549,0 -8.09724,10.56184 -8.09724,12.68428 0,2.19148 -3.62983,9.38324 -5.4715,10.84065 -0.71234,0.56372 -1.46476,1.91372 -1.67205,3 -0.58429,3.06199 -4.64508,3.16121 -5.79315,0.14155 -1.4546,-3.82587 -2.87459,-4.04163 -2.71024,-0.4118 0.12677,2.79978 -0.21143,3.28691 -2.46341,3.54827 -1.68665,0.19574 -3.72135,-0.6319 -5.75,-2.3389 z m 5.07128,-9.21405 c 1.69777,-2.0525 4.62863,-1.4245 6.47043,1.38644 l 1.72746,2.63644 2.7885,-3.34017 c 1.53367,-1.83709 3.08458,-4.93599 3.44645,-6.88644 0.70839,-3.81806 2.09974,-6.38768 6.69242,-12.35994 l 2.93272,-3.81367 -3.26091,-3.36441 c -2.49788,-2.57716 -3.11915,-3.92926 -2.65505,-5.77837 0.487,-1.94035 0.0704,-2.67713 -2.12354,-3.75532 -1.50118,-0.73775 -3.66795,-2.41097 -4.81506,-3.71826 -2.65402,-3.02465 -5.62825,-2.39612 -10.91408,2.30645 -2.61845,2.32951 -4.85242,3.43742 -6.93192,3.43778 -2.90348,5e-4 -3.0609,0.202 -2.92965,3.75 0.34985,9.45786 0.24901,9.09159 2.35171,8.54173 1.53783,-0.40216 1.85195,-1.07217 1.38148,-2.94668 -0.74477,-2.9674 1.97498,-6.34558 5.10878,-6.34558 3.36407,0 6.68269,4.26967 7.25328,9.33193 0.46585,4.13309 0.20349,4.78063 -3.61582,8.92409 -2.92617,3.17452 -4.11813,5.34052 -4.11813,7.48337 0,1.65864 -0.675,3.57592 -1.5,4.26061 -1.826,1.51544 -1.93862,4.15675 -0.25,5.86321 1.00355,1.01415 1.31674,0.70855 1.58849,-1.55 0.18616,-1.54727 0.80376,-3.37571 1.37244,-4.06321 z M 179,271.02568 c 0,-2.22983 0.68834,-3.33386 2.75,-4.41072 1.5125,-0.79003 4.07169,-2.82658 5.68709,-4.52568 3.39797,-3.57404 7.38215,-4.05149 9.96769,-1.1945 1.67819,1.85438 1.76145,1.8468 3.90499,-0.35545 6.76332,-6.94859 6.91469,-7.20705 5.52438,-9.43329 C 205.75477,249.37768 204.52858,249 199.99658,249 c -4.7677,0 -5.65721,0.30746 -6.50945,2.25 -0.76632,1.7467 -1.95434,2.31959 -5.31103,2.56111 -2.37815,0.17111 -4.89735,-0.1648 -5.59821,-0.74647 -1.35316,-1.12302 -2.10881,-0.45875 -6.18304,5.43536 -3.60624,5.21707 -3.62613,8.73586 -0.0806,14.25 1.40122,2.1792 2.68571,1.35451 2.68571,-1.72432 z m 49.58581,-16.91452 c 1.51385,-1.19079 3.23884,-2.00135 3.83332,-1.80125 0.59448,0.20011 1.62482,-0.9203 2.28964,-2.48979 0.84673,-1.99892 2.15982,-3.04384 4.38406,-3.48869 l 3.17529,-0.63505 -2.63406,-1.38013 c -1.44873,-0.75907 -2.62728,-1.92825 -2.619,-2.59819 0.0243,-1.9627 2.55602,-8.68914 3.70173,-9.83485 1.71408,-1.71408 5.74867,-0.62434 6.07308,1.64033 0.39399,2.75028 4.33301,4.19893 12.89809,4.74352 7.25759,0.46145 9.31204,-0.23094 9.31204,-3.13832 0,-4.15395 8.26342,-7.21182 9.65923,-3.57439 0.46139,1.20237 1.01707,0.86271 2.45391,-1.5 1.18048,-1.94114 2.68287,-3.06224 4.12216,-3.07599 1.56458,-0.0149 2.72842,-1.01967 3.7647,-3.25 0.94119,-2.02567 2.35872,-3.35009 3.80504,-3.55512 4.58365,-0.64978 6.86649,4.01238 3.57591,7.30295 -0.89047,0.89048 -1.35135,1.88674 -1.02416,2.21393 1.06404,1.06404 3.6318,-1.86491 4.44117,-5.06588 0.52473,-2.07525 1.86057,-3.66647 3.97857,-4.7392 l 3.1886,-1.61495 -2.47838,-4.88505 C 301.97931,208.44271 301.18665,203 302.97432,203 304.28453,203 307,197.61347 307,195.01448 c 0,-1.14667 0.65803,-3.08913 1.46229,-4.31658 1.27103,-1.93984 1.27677,-2.75271 0.0439,-6.21482 C 305.3724,175.68293 307.42881,168 312.91803,168 c 2.44446,0 2.7439,-0.31768 2.33172,-2.47383 -0.31835,-1.66534 0.53801,-4.00001 2.62033,-7.14374 4.52711,-6.83468 4.88274,-10.28696 1.74285,-16.91851 C 318.17582,138.4287 317,135.33983 317,134.59978 c 0,-1.50486 -3.28674,-9.61012 -5.63401,-13.89374 -1.11735,-2.03909 -1.27986,-3.52507 -0.60147,-5.5 C 311.9455,111.76793 311.33803,110 308.97568,110 c -2.18336,0 -3.45298,1.58698 -1.99199,2.48992 0.55897,0.34546 1.01631,1.69623 1.01631,3.00171 0,4.36646 -6.70891,4.54688 -8.78932,0.23637 -0.93491,-1.93709 -1.08416,-1.6108 -1.143,2.49895 -0.0558,3.89798 -0.5061,5.01421 -2.56768,6.36501 -2.83846,1.85983 -3.23493,4.55321 -0.94944,6.45 2.38853,1.9823 1.43627,6.26361 -1.55056,6.97125 l -2.5,0.5923 2.81164,1.85265 c 2.56154,1.68784 2.75163,2.21687 2.13694,5.94724 -0.37109,2.25203 -1.05696,4.57038 -1.52416,5.1519 -0.4672,0.58151 -1.5205,3.50651 -2.34068,6.5 -3.82799,13.97143 -6.91402,20.56481 -10.70417,22.86974 -1.63291,0.99303 -4.08581,3.31937 -5.4509,5.16964 -2.83725,3.84568 -9.90373,8.90332 -12.4396,8.90332 -0.94049,0 -3.46027,1.19273 -5.59952,2.65052 -2.22852,1.51861 -5.38422,2.693 -7.38955,2.75 l -3.5,0.0995 0.25827,-4.9075 c 0.14205,-2.69913 0.76867,-5.5225 1.3925,-6.27417 1.85208,-2.23162 0.18734,-2.65894 -2.59696,-0.6666 -2.17383,1.55549 -2.49063,2.38259 -1.99998,5.2214 0.46926,2.71509 0.0304,4.08068 -2.24978,7 -6.56514,8.40548 -8.66559,12.16533 -7.46625,13.36467 0.63921,0.63921 1.1622,2.21319 1.1622,3.49774 0,1.82187 -1.00794,2.76759 -4.58291,4.3 -4.85423,2.08077 -9.39282,2.53465 -10.96709,1.09676 -0.53736,-0.4908 -6.16228,-0.44185 -12.95,0.11271 -6.6,0.53921 -14.925,1.08443 -18.5,1.21158 -8.99487,0.31992 -8.57175,0.19219 -12.11691,3.65769 -1.75222,1.71285 -4.58024,3.71172 -6.28447,4.44192 -1.70424,0.73021 -5.01203,3.15378 -7.35064,5.38573 -2.36021,2.25254 -5.2522,4.06488 -6.5,4.07338 -2.79978,0.0191 -4.13442,0.88766 -5.57726,3.62968 -1.97244,3.74848 1.05668,4.83898 12.51592,4.50581 5.08459,-0.14783 5.19281,-0.21475 5.5,-3.4008 0.30919,-3.20673 0.37992,-3.2487 5.31336,-3.15209 3.03735,0.0595 5.2931,-0.39401 5.74669,-1.15529 0.48913,-0.82093 2.09657,-1.07214 4.66017,-0.72829 2.689,0.36067 4.63699,0.0182 6.22582,-1.09471 1.27178,-0.89079 3.53565,-1.61962 5.03081,-1.61962 1.49516,0 3.01582,-0.48111 3.37923,-1.06912 0.36342,-0.58802 2.30247,-0.96379 4.30902,-0.83505 2.00654,0.12874 5.12919,-0.10495 6.93922,-0.51933 2.16958,-0.49668 3.80154,-0.32966 4.78939,0.49018 1.29077,1.07125 0.93864,1.76559 -2.54096,5.01026 -3.58941,3.34707 -5.66098,7.04329 -3.03939,5.42306 0.55,-0.33992 1,-0.0864 1,0.56343 0,0.88042 0.3822,0.86426 1.5,-0.0634 0.825,-0.68469 1.5,-2.01135 1.5,-2.94813 0,-2.39656 4.56071,-6.43442 6.44912,-5.70977 1.73469,0.66567 2.1579,6.1647 0.55088,7.1579 -0.55,0.33992 -1,2.48707 -1,4.77145 0,3.33136 0.54429,4.58857 2.75,6.35197 2.55577,2.04327 2.79709,2.07334 3.41668,0.42568 0.36668,-0.97507 1.90529,-2.74715 3.41913,-3.93794 z M 190,248 c 0,-1.65217 -0.66667,-2 -3.83333,-2 -4.76824,0 -5.83923,0.94293 -2.91074,2.56269 C 186.89227,250.57398 190,250.31469 190,248 z M 297,103.37157 c 0,-0.77795 1.03583,-1.8864 2.30184,-2.46324 l 2.30185,-1.048787 -3.30185,-3.500974 C 296.47795,94.424684 295,91.795811 295,90.485502 c 0,-4.403387 7.26457,-7.281491 10.01478,-3.967692 1.11704,1.345953 1.6469,1.28934 4.67961,-0.5 3.56342,-2.10247 9.21752,-2.678406 10.85561,-1.105771 0.5225,0.501622 3.65,2.316794 6.95,4.033716 3.3,1.716922 6.80031,3.669004 7.77847,4.337961 2.20476,1.507828 3.3218,0.04175 4.27731,-5.613854 0.45481,-2.691992 1.96047,-5.196268 4.94334,-8.221981 3.65906,-3.711609 5.07631,-4.451216 9.64511,-5.033408 5.44129,-0.693372 6.90354,-1.242315 10.20687,-3.831757 1.7818,-1.396729 1.75403,-1.578329 -0.7417,-4.850398 -1.42604,-1.869639 -2.87521,-4.81137 -3.22037,-6.537182 -0.5534,-2.76701 -0.86329,-3.011687 -2.62215,-2.070374 -1.09702,0.587107 -3.40585,0.812349 -5.13073,0.500539 -1.72488,-0.311811 -4.91249,-0.864667 -7.08357,-1.228569 -4.58076,-0.767795 -15.45101,-8.320119 -20.24825,-14.067878 -8.07044,-9.669497 -9.2496,-10.783588 -10.3008,-9.732382 -0.73257,0.73257 -0.60011,2.124806 0.43872,4.611064 1.90754,4.565396 1.05051,23.666143 -1.09888,24.490944 C 313.454,62.03976 313,63.995216 313,67.484544 c 0,3.016423 -0.53461,5.698276 -1.25,6.270622 -2.59657,2.077371 -5.79355,2.369593 -8.91081,0.814498 C 301.10863,73.706349 299.56515,73 299.40923,73 c -0.15592,0 -0.025,1.592756 0.29089,3.539458 0.45705,2.816507 0.10222,4.042034 -1.73719,6 C 296.69157,83.892756 295.06519,85 294.34874,85 c -0.71645,0 -2.05294,1.145106 -2.96997,2.54468 -1.60857,2.454992 -1.57227,2.643908 1.02995,5.360047 2.46276,2.570562 2.63779,3.263959 2.01293,7.974343 -0.59947,4.51909 -0.48202,5.08132 0.947,4.53296 0.89724,-0.3443 1.63135,-1.26251 1.63135,-2.04046 z"
         style="fill:#e49bac" />
      <path
         inkscape:connector-curvature="0"
         id="path2992"
         d="M 134.13965,302.46405 C 131.63745,300.35859 131,299.05299 131,296.03355 c 0,-2.14775 0.64967,-4.32784 1.5,-5.03355 0.825,-0.68469 1.5,-2.72221 1.5,-4.52783 0,-2.28732 1.06145,-4.55342 3.5,-7.47217 3.85018,-4.60837 4.55323,-8.89131 1.82659,-11.12756 -1.47764,-1.21187 -1.6089,-1.13845 -1.12191,0.62756 0.30333,1.1 0.71887,2.61051 0.92341,3.35669 0.21096,0.76954 -1.29824,2.24301 -3.48721,3.40466 -7.21965,3.83137 -10.28119,0.73435 -11.13231,-11.26135 -0.38911,-5.48406 1.48676,-8 5.96476,-8 2.19942,0 4.36143,-1.06629 7.09502,-3.49922 2.16241,-1.92457 4.6629,-3.49957 5.55665,-3.5 1.00832,-4.8e-4 1.85464,-1.14896 2.23011,-3.02635 0.79365,-3.96821 4.88756,-7.97443 8.149,-7.97443 1.62745,0 3.97475,-1.34218 6.29546,-3.59974 2.03523,-1.97985 5.05043,-4.28708 6.70043,-5.12717 1.65,-0.8401 3.16872,-1.67643 3.37494,-1.85854 0.20621,-0.1821 -1.19821,-2.71237 -3.12094,-5.62282 C 144.45677,188.04021 144.50466,144.99944 166.87729,111 171.79024,103.53384 184.18884,90.681935 191.5,85.477053 c 8.39112,-5.973721 20.52403,-11.884428 31.05111,-15.12696 8.39804,-2.586746 10.08767,-2.756419 27.44889,-2.756419 17.26359,0 19.08409,0.180164 27.23955,2.695755 4.80675,1.482665 10.88175,3.730087 13.5,4.994271 l 4.76045,2.298516 0,-4.041108 c 0,-3.826019 0.17253,-4.057752 3.24141,-4.353826 1.78278,-0.171995 4.19694,0.356558 5.36481,1.174561 3.49569,2.448482 4.89378,1.043151 4.89378,-4.919142 0,-3.60431 0.46741,-5.604895 1.43616,-6.147039 1.89721,-1.061729 2.50575,-17.803688 0.76259,-20.979921 C 308.43817,33.285659 311.16255,28 316.51578,28 c 2.03229,0 8.71099,6.329996 13.46952,12.766249 3.6837,4.982473 13.06841,11.137301 16.09861,10.558042 1.58343,-0.302692 3.03095,0.109186 3.84935,1.095296 2.33002,2.807499 5.36449,1.77725 8.89462,-3.019857 3.7845,-5.142778 5.557,-6.155127 7.68485,-4.389161 2.07286,1.720314 1.85456,4.707045 -0.56925,7.78842 -2.23612,2.842764 -2.02532,5.62028 0.74777,9.852546 1.29554,1.977243 2.14532,2.323633 4.45563,1.816205 4.31049,-0.946743 5.06246,2.142802 1.27147,5.223997 -6.6216,5.381821 -11.61481,8.078822 -16.13952,8.717496 -7.08054,0.999433 -10.93882,4.745282 -13.07756,12.696473 -1.63414,6.07526 -1.88296,6.410026 -4.98689,6.709612 C 336.2595,98.004 333.65274,97.350309 331.72372,96.187672 320.08505,89.172946 314,86.629303 314,88.778888 c 0,0.428389 2.94299,3.690889 6.53999,7.25 38.6246,38.217822 39.30186,99.943592 1.52862,139.318192 -12.42964,12.95657 -27.31508,22.02564 -44.79198,27.28985 -7.82182,2.356 -10.51728,2.65366 -24.77663,2.73611 -20.71432,0.11976 -29.9545,-0.59783 -32.21015,-2.50144 -0.98442,-0.83078 -3.75319,-2.25053 -6.15284,-3.15499 l -4.36298,-1.64448 -2.87976,2.87976 c -1.58387,1.58387 -3.32189,4.04264 -3.86227,5.46393 -1.30437,3.43078 -3.597,3.26136 -7.13616,-0.52733 l -2.90659,-3.11151 -3.9975,3.61151 C 186.79312,268.37482 184.54553,270 183.99712,270 183.4487,270 183,271.5199 183,273.37756 c 0,1.85765 -0.58932,3.86665 -1.30961,4.46443 -1.33383,1.10698 -4.86288,0.49759 -7.77156,-1.34199 C 172.04216,275.31312 169,269.41473 169,266.96299 c 0,-0.95135 -0.9,-1.96508 -2,-2.25274 -3.11252,-0.81394 -2.35719,-3.53417 1.41951,-5.11217 1.88073,-0.78582 3.96071,-2.47936 4.62219,-3.76342 0.66147,-1.28406 2.35688,-3.57216 3.76758,-5.08466 1.75092,-1.87727 2.10883,-2.75433 1.12781,-2.76365 -0.7904,-0.008 -2.44959,-0.285 -3.68709,-0.61664 -1.87898,-0.50354 -2.25,-0.20447 -2.25,1.81366 0,3.55592 -1.84091,4.81663 -7.03333,4.81663 -5.55116,0 -6.67929,0.81256 -3.86494,2.78381 1.52037,1.06491 1.9745,2.24343 1.66833,4.32949 -0.3037,2.06924 0.22594,3.47377 1.90463,5.05081 2.31068,2.17078 3.38374,8.83589 1.42255,8.83589 -1.3549,0 -8.09724,10.56184 -8.09724,12.68428 0,2.19148 -3.62983,9.38324 -5.4715,10.84065 -0.71234,0.56372 -1.46476,1.91372 -1.67205,3 -0.58429,3.06199 -4.64508,3.16121 -5.79315,0.14155 -1.4546,-3.82587 -2.87459,-4.04163 -2.71024,-0.4118 0.12677,2.79978 -0.21143,3.28691 -2.46341,3.54827 -1.68665,0.19574 -3.72135,-0.6319 -5.75,-2.3389 z m 5.07128,-9.21405 c 1.69777,-2.0525 4.62863,-1.4245 6.47043,1.38644 l 1.72746,2.63644 2.7885,-3.34017 c 1.53367,-1.83709 3.08458,-4.93599 3.44645,-6.88644 0.70839,-3.81806 2.09974,-6.38768 6.69242,-12.35994 l 2.93272,-3.81367 -3.26091,-3.36441 c -2.49788,-2.57716 -3.11915,-3.92926 -2.65505,-5.77837 0.487,-1.94035 0.0704,-2.67713 -2.12354,-3.75532 -1.50118,-0.73775 -3.66795,-2.41097 -4.81506,-3.71826 -2.65402,-3.02465 -5.62825,-2.39612 -10.91408,2.30645 -2.61845,2.32951 -4.85242,3.43742 -6.93192,3.43778 -2.90348,5e-4 -3.0609,0.202 -2.92965,3.75 0.34985,9.45786 0.24901,9.09159 2.35171,8.54173 1.53783,-0.40216 1.85195,-1.07217 1.38148,-2.94668 -0.74477,-2.9674 1.97498,-6.34558 5.10878,-6.34558 3.36407,0 6.68269,4.26967 7.25328,9.33193 0.46585,4.13309 0.20349,4.78063 -3.61582,8.92409 -2.92617,3.17452 -4.11813,5.34052 -4.11813,7.48337 0,1.65864 -0.675,3.57592 -1.5,4.26061 -1.826,1.51544 -1.93862,4.15675 -0.25,5.86321 1.00355,1.01415 1.31674,0.70855 1.58849,-1.55 0.18616,-1.54727 0.80376,-3.37571 1.37244,-4.06321 z M 179,271.02568 c 0,-2.22983 0.68834,-3.33386 2.75,-4.41072 1.5125,-0.79003 4.07169,-2.82658 5.68709,-4.52568 3.39797,-3.57404 7.38215,-4.05149 9.96769,-1.1945 1.67819,1.85438 1.76145,1.8468 3.90499,-0.35545 6.76332,-6.94859 6.91469,-7.20705 5.52438,-9.43329 C 205.75477,249.37768 204.52858,249 199.99658,249 c -4.7677,0 -5.65721,0.30746 -6.50945,2.25 -0.76632,1.7467 -1.95434,2.31959 -5.31103,2.56111 -2.37815,0.17111 -4.89735,-0.1648 -5.59821,-0.74647 -1.35316,-1.12302 -2.10881,-0.45875 -6.18304,5.43536 -3.60624,5.21707 -3.62613,8.73586 -0.0806,14.25 1.40122,2.1792 2.68571,1.35451 2.68571,-1.72432 z m 49.58581,-16.91452 c 1.51385,-1.19079 3.23884,-2.00135 3.83332,-1.80125 0.59448,0.20011 1.62482,-0.9203 2.28964,-2.48979 0.84673,-1.99892 2.15982,-3.04384 4.38406,-3.48869 l 3.17529,-0.63505 -2.63406,-1.38013 c -1.44873,-0.75907 -2.62728,-1.92825 -2.619,-2.59819 0.0243,-1.9627 2.55602,-8.68914 3.70173,-9.83485 1.71408,-1.71408 5.74867,-0.62434 6.07308,1.64033 0.39399,2.75028 4.33301,4.19893 12.89809,4.74352 7.25759,0.46145 9.31204,-0.23094 9.31204,-3.13832 0,-4.15395 8.26342,-7.21182 9.65923,-3.57439 0.46139,1.20237 1.01707,0.86271 2.45391,-1.5 1.18048,-1.94114 2.68287,-3.06224 4.12216,-3.07599 1.56458,-0.0149 2.72842,-1.01967 3.7647,-3.25 0.94119,-2.02567 2.35872,-3.35009 3.80504,-3.55512 4.58365,-0.64978 6.86649,4.01238 3.57591,7.30295 -0.89047,0.89048 -1.35135,1.88674 -1.02416,2.21393 1.06404,1.06404 3.6318,-1.86491 4.44117,-5.06588 0.52473,-2.07525 1.86057,-3.66647 3.97857,-4.7392 l 3.1886,-1.61495 -2.47838,-4.88505 C 301.97931,208.44271 301.18665,203 302.97432,203 304.28453,203 307,197.61347 307,195.01448 c 0,-1.14667 0.65803,-3.08913 1.46229,-4.31658 1.27103,-1.93984 1.27677,-2.75271 0.0439,-6.21482 C 305.3724,175.68293 307.42881,168 312.91803,168 c 2.44446,0 2.7439,-0.31768 2.33172,-2.47383 -0.31835,-1.66534 0.53801,-4.00001 2.62033,-7.14374 4.52711,-6.83468 4.88274,-10.28696 1.74285,-16.91851 C 318.17582,138.4287 317,135.33983 317,134.59978 c 0,-1.50486 -3.28674,-9.61012 -5.63401,-13.89374 -1.11735,-2.03909 -1.27986,-3.52507 -0.60147,-5.5 C 311.9455,111.76793 311.33803,110 308.97568,110 c -2.18336,0 -3.45298,1.58698 -1.99199,2.48992 0.55897,0.34546 1.01631,1.69623 1.01631,3.00171 0,4.36646 -6.70891,4.54688 -8.78932,0.23637 -0.93491,-1.93709 -1.08416,-1.6108 -1.143,2.49895 -0.0558,3.89798 -0.5061,5.01421 -2.56768,6.36501 -2.83846,1.85983 -3.23493,4.55321 -0.94944,6.45 2.38853,1.9823 1.43627,6.26361 -1.55056,6.97125 l -2.5,0.5923 2.81164,1.85265 c 2.56154,1.68784 2.75163,2.21687 2.13694,5.94724 -0.37109,2.25203 -1.05696,4.57038 -1.52416,5.1519 -0.4672,0.58151 -1.5205,3.50651 -2.34068,6.5 -3.82799,13.97143 -6.91402,20.56481 -10.70417,22.86974 -1.63291,0.99303 -4.08581,3.31937 -5.4509,5.16964 -2.83725,3.84568 -9.90373,8.90332 -12.4396,8.90332 -0.94049,0 -3.46027,1.19273 -5.59952,2.65052 -2.22852,1.51861 -5.38422,2.693 -7.38955,2.75 l -3.5,0.0995 0.25827,-4.9075 c 0.14205,-2.69913 0.76867,-5.5225 1.3925,-6.27417 1.85208,-2.23162 0.18734,-2.65894 -2.59696,-0.6666 -2.17383,1.55549 -2.49063,2.38259 -1.99998,5.2214 0.46926,2.71509 0.0304,4.08068 -2.24978,7 -6.56514,8.40548 -8.66559,12.16533 -7.46625,13.36467 0.63921,0.63921 1.1622,2.21319 1.1622,3.49774 0,1.82187 -1.00794,2.76759 -4.58291,4.3 -4.85423,2.08077 -9.39282,2.53465 -10.96709,1.09676 -0.53736,-0.4908 -6.16228,-0.44185 -12.95,0.11271 -6.6,0.53921 -14.925,1.08443 -18.5,1.21158 -8.99487,0.31992 -8.57175,0.19219 -12.11691,3.65769 -1.75222,1.71285 -4.58024,3.71172 -6.28447,4.44192 -1.70424,0.73021 -5.01203,3.15378 -7.35064,5.38573 -2.36021,2.25254 -5.2522,4.06488 -6.5,4.07338 -2.79978,0.0191 -4.13442,0.88766 -5.57726,3.62968 -1.97244,3.74848 1.05668,4.83898 12.51592,4.50581 5.08459,-0.14783 5.19281,-0.21475 5.5,-3.4008 0.30919,-3.20673 0.37992,-3.2487 5.31336,-3.15209 3.03735,0.0595 5.2931,-0.39401 5.74669,-1.15529 0.48913,-0.82093 2.09657,-1.07214 4.66017,-0.72829 2.689,0.36067 4.63699,0.0182 6.22582,-1.09471 1.27178,-0.89079 3.53565,-1.61962 5.03081,-1.61962 1.49516,0 3.01582,-0.48111 3.37923,-1.06912 0.36342,-0.58802 2.30247,-0.96379 4.30902,-0.83505 2.00654,0.12874 5.12919,-0.10495 6.93922,-0.51933 2.16958,-0.49668 3.80154,-0.32966 4.78939,0.49018 1.29077,1.07125 0.93864,1.76559 -2.54096,5.01026 -3.58941,3.34707 -5.66098,7.04329 -3.03939,5.42306 0.55,-0.33992 1,-0.0864 1,0.56343 0,0.88042 0.3822,0.86426 1.5,-0.0634 0.825,-0.68469 1.5,-2.01135 1.5,-2.94813 0,-2.39656 4.56071,-6.43442 6.44912,-5.70977 1.73469,0.66567 2.1579,6.1647 0.55088,7.1579 -0.55,0.33992 -1,2.48707 -1,4.77145 0,3.33136 0.54429,4.58857 2.75,6.35197 2.55577,2.04327 2.79709,2.07334 3.41668,0.42568 0.36668,-0.97507 1.90529,-2.74715 3.41913,-3.93794 z M 190,248 c 0,-1.65217 -0.66667,-2 -3.83333,-2 -4.76824,0 -5.83923,0.94293 -2.91074,2.56269 C 186.89227,250.57398 190,250.31469 190,248 z M 297,103.37157 c 0,-0.77795 1.03583,-1.8864 2.30184,-2.46324 l 2.30185,-1.048787 -3.30185,-3.500974 C 296.47795,94.424684 295,91.795811 295,90.485502 c 0,-4.403387 7.26457,-7.281491 10.01478,-3.967692 1.11704,1.345953 1.6469,1.28934 4.67961,-0.5 3.56342,-2.10247 9.21752,-2.678406 10.85561,-1.105771 0.5225,0.501622 3.65,2.316794 6.95,4.033716 3.3,1.716922 6.80031,3.669004 7.77847,4.337961 2.20476,1.507828 3.3218,0.04175 4.27731,-5.613854 0.45481,-2.691992 1.96047,-5.196268 4.94334,-8.221981 3.65906,-3.711609 5.07631,-4.451216 9.64511,-5.033408 5.44129,-0.693372 6.90354,-1.242315 10.20687,-3.831757 1.7818,-1.396729 1.75403,-1.578329 -0.7417,-4.850398 -1.42604,-1.869639 -2.87521,-4.81137 -3.22037,-6.537182 -0.5534,-2.76701 -0.86329,-3.011687 -2.62215,-2.070374 -1.09702,0.587107 -3.40585,0.812349 -5.13073,0.500539 -1.72488,-0.311811 -4.91249,-0.864667 -7.08357,-1.228569 -4.58076,-0.767795 -15.45101,-8.320119 -20.24825,-14.067878 -8.07044,-9.669497 -9.2496,-10.783588 -10.3008,-9.732382 -0.73257,0.73257 -0.60011,2.124806 0.43872,4.611064 1.90754,4.565396 1.05051,23.666143 -1.09888,24.490944 C 313.454,62.03976 313,63.995216 313,67.484544 c 0,3.016423 -0.53461,5.698276 -1.25,6.270622 -2.59657,2.077371 -5.79355,2.369593 -8.91081,0.814498 C 301.10863,73.706349 299.56515,73 299.40923,73 c -0.15592,0 -0.025,1.592756 0.29089,3.539458 0.45705,2.816507 0.10222,4.042034 -1.73719,6 C 296.69157,83.892756 295.06519,85 294.34874,85 c -0.71645,0 -2.05294,1.145106 -2.96997,2.54468 -1.60857,2.454992 -1.57227,2.643908 1.02995,5.360047 2.46276,2.570562 2.63779,3.263959 2.01293,7.974343 -0.59947,4.51909 -0.48202,5.08132 0.947,4.53296 0.89724,-0.3443 1.63135,-1.26251 1.63135,-2.04046 z"
         style="fill:#d9728a" />
      <path
         inkscape:connector-curvature="0"
         id="path2990"
         d="M 134.13965,302.46405 C 131.63745,300.35859 131,299.05299 131,296.03355 c 0,-2.14775 0.64967,-4.32784 1.5,-5.03355 0.825,-0.68469 1.5,-2.71579 1.5,-4.51356 0,-2.33942 1.1359,-4.64327 3.99556,-8.10386 4.1597,-5.0338 4.4319,-7.26607 1.26605,-10.38258 -1.59814,-1.57323 -1.60082,-1.49592 -0.13352,3.85669 0.21096,0.76954 -1.29824,2.24301 -3.48721,3.40466 -7.21965,3.83137 -10.28119,0.73435 -11.13231,-11.26135 -0.38911,-5.48406 1.48676,-8 5.96476,-8 2.19942,0 4.36143,-1.06629 7.09502,-3.49922 2.16241,-1.92457 4.6629,-3.49957 5.55665,-3.5 1.00832,-4.8e-4 1.85464,-1.14896 2.23011,-3.02635 0.79365,-3.96821 4.88756,-7.97443 8.149,-7.97443 1.62745,0 3.97475,-1.34218 6.29546,-3.59974 2.03523,-1.97985 5.05043,-4.28708 6.70043,-5.12717 1.65,-0.8401 3.16099,-1.6687 3.35776,-1.84136 0.19676,-0.17265 -1.75345,-3.70119 -4.3338,-7.8412 -5.94001,-9.53036 -9.91255,-18.97516 -12.71668,-30.23422 -3.26992,-13.12926 -3.0786,-34.1488 0.43114,-47.36779 9.42726,-35.50656 36.35952,-62.575727 71.76158,-72.126359 7.24568,-1.954712 10.93486,-2.293097 25,-2.293097 18.10587,0 26.86259,1.626191 39.40773,7.318317 l 6.09227,2.764255 0,-4.075818 c 0,-3.86516 0.16753,-4.091981 3.24141,-4.388536 1.78278,-0.171995 4.19694,0.356558 5.36481,1.174561 3.49569,2.448482 4.89378,1.043151 4.89378,-4.919142 0,-3.60431 0.46741,-5.604895 1.43616,-6.147039 1.89721,-1.061729 2.50575,-17.803688 0.76259,-20.979921 C 308.43817,33.285659 311.16255,28 316.51578,28 c 2.03229,0 8.71099,6.329996 13.46952,12.766249 3.6837,4.982473 13.06841,11.137301 16.09861,10.558042 1.58343,-0.302692 3.03095,0.109186 3.84935,1.095296 2.33002,2.807499 5.36449,1.77725 8.89462,-3.019857 3.7845,-5.142778 5.557,-6.155127 7.68485,-4.389161 2.07286,1.720314 1.85456,4.707045 -0.56925,7.78842 -2.23612,2.842764 -2.02532,5.62028 0.74777,9.852546 1.29554,1.977243 2.14532,2.323633 4.45563,1.816205 4.31049,-0.946743 5.06246,2.142802 1.27147,5.223997 -6.6216,5.381821 -11.61481,8.078822 -16.13952,8.717496 -7.08054,0.999433 -10.93882,4.745282 -13.07756,12.696473 -1.63414,6.07526 -1.88296,6.410026 -4.98689,6.709612 C 336.2595,98.004 333.65274,97.350309 331.72372,96.187672 320.3815,89.351619 314,86.633644 314,88.638878 c 0,0.351383 3.39323,4.190533 7.54051,8.531445 12.78284,13.379637 20.51311,27.112107 25.22904,44.818197 2.17579,8.16906 2.53334,11.62853 2.53334,24.51148 0,12.88295 -0.35755,16.34242 -2.53334,24.51148 -7.8906,29.62546 -27.46514,53.09208 -55.04209,65.98632 -13.66485,6.38932 -22.90273,8.3405 -39.72746,8.39107 -19.96663,0.06 -29.57836,-0.7152 -31.7281,-2.55894 -0.97454,-0.83582 -3.71173,-2.27178 -6.08262,-3.19101 l -4.31073,-1.67132 -2.93202,2.93202 c -1.61261,1.61262 -3.37415,4.09491 -3.91453,5.5162 -1.30437,3.43078 -3.597,3.26136 -7.13616,-0.52733 l -2.90659,-3.11151 -3.9975,3.61151 C 186.79312,268.37482 184.54553,270 183.99712,270 183.4487,270 183,271.5199 183,273.37756 c 0,1.85765 -0.58932,3.86665 -1.30961,4.46443 -1.33383,1.10698 -4.86288,0.49759 -7.77156,-1.34199 C 172.04216,275.31312 169,269.41473 169,266.96299 c 0,-0.95135 -0.9,-1.96508 -2,-2.25274 -3.11252,-0.81394 -2.35719,-3.53417 1.41951,-5.11217 1.88073,-0.78582 3.96071,-2.47936 4.62219,-3.76342 0.66147,-1.28406 2.35688,-3.57216 3.76758,-5.08466 1.75092,-1.87727 2.10883,-2.75433 1.12781,-2.76365 -0.7904,-0.008 -2.44959,-0.285 -3.68709,-0.61664 -1.87898,-0.50354 -2.25,-0.20447 -2.25,1.81366 0,3.55592 -1.84091,4.81663 -7.03333,4.81663 -5.55116,0 -6.67929,0.81256 -3.86494,2.78381 1.52037,1.06491 1.9745,2.24343 1.66833,4.32949 -0.3037,2.06924 0.22594,3.47377 1.90463,5.05081 2.31068,2.17078 3.38374,8.83589 1.42255,8.83589 -1.3549,0 -8.09724,10.56184 -8.09724,12.68428 0,2.16179 -3.67663,9.32522 -5.54202,10.79789 -0.70909,0.5598 -1.44432,1.91783 -1.63384,3.01783 -0.53241,3.09026 -4.60448,3.20794 -5.76084,0.16648 -1.4546,-3.82587 -2.87459,-4.04163 -2.71024,-0.4118 0.12677,2.79978 -0.21143,3.28691 -2.46341,3.54827 -1.68665,0.19574 -3.72135,-0.6319 -5.75,-2.3389 z m 5.07128,-9.21405 c 1.69777,-2.0525 4.62863,-1.4245 6.47043,1.38644 l 1.72746,2.63644 2.7885,-3.34017 c 1.53367,-1.83709 3.08458,-4.93599 3.44645,-6.88644 0.70839,-3.81806 2.09974,-6.38768 6.69242,-12.35994 l 2.93272,-3.81367 -3.26091,-3.36441 c -2.49788,-2.57716 -3.11915,-3.92926 -2.65505,-5.77837 0.487,-1.94035 0.0704,-2.67713 -2.12354,-3.75532 -1.50118,-0.73775 -3.66795,-2.41097 -4.81506,-3.71826 -2.65402,-3.02465 -5.62825,-2.39612 -10.91408,2.30645 -2.61845,2.32951 -4.85242,3.43742 -6.93192,3.43778 -2.90348,5e-4 -3.0609,0.202 -2.92965,3.75 0.34985,9.45786 0.24901,9.09159 2.35171,8.54173 1.53783,-0.40216 1.85195,-1.07217 1.38148,-2.94668 -0.74477,-2.9674 1.97498,-6.34558 5.10878,-6.34558 3.36407,0 6.68269,4.26967 7.25328,9.33193 0.46585,4.13309 0.20349,4.78063 -3.61582,8.92409 -2.92617,3.17452 -4.11813,5.34052 -4.11813,7.48337 0,1.65864 -0.675,3.57592 -1.5,4.26061 -1.826,1.51544 -1.93862,4.15675 -0.25,5.86321 1.00355,1.01415 1.31674,0.70855 1.58849,-1.55 0.18616,-1.54727 0.80376,-3.37571 1.37244,-4.06321 z M 179,271.02568 c 0,-2.22983 0.68834,-3.33386 2.75,-4.41072 1.5125,-0.79003 4.07169,-2.82658 5.68709,-4.52568 3.39797,-3.57404 7.38215,-4.05149 9.96769,-1.1945 1.67819,1.85438 1.76145,1.8468 3.90499,-0.35545 6.76332,-6.94859 6.91469,-7.20705 5.52438,-9.43329 C 205.75477,249.37768 204.52858,249 199.99658,249 c -4.7677,0 -5.65721,0.30746 -6.50945,2.25 -0.76632,1.7467 -1.95434,2.31959 -5.31103,2.56111 -2.37815,0.17111 -4.89735,-0.1648 -5.59821,-0.74647 -1.35316,-1.12302 -2.10881,-0.45875 -6.18304,5.43536 -3.60624,5.21707 -3.62613,8.73586 -0.0806,14.25 1.40122,2.1792 2.68571,1.35451 2.68571,-1.72432 z m 49.58581,-16.91452 c 1.51385,-1.19079 3.23884,-2.00135 3.83332,-1.80125 0.59448,0.20011 1.62482,-0.9203 2.28964,-2.48979 0.84673,-1.99892 2.15982,-3.04384 4.38406,-3.48869 l 3.17529,-0.63505 -2.63406,-1.38013 c -1.44873,-0.75907 -2.62728,-1.92825 -2.619,-2.59819 0.0243,-1.9627 2.55602,-8.68914 3.70173,-9.83485 1.71408,-1.71408 5.74867,-0.62434 6.07308,1.64033 0.39399,2.75028 4.33301,4.19893 12.89809,4.74352 7.25759,0.46145 9.31204,-0.23094 9.31204,-3.13832 0,-4.15395 8.26342,-7.21182 9.65923,-3.57439 0.46139,1.20237 1.01707,0.86271 2.45391,-1.5 1.18048,-1.94114 2.68287,-3.06224 4.12216,-3.07599 1.56458,-0.0149 2.72842,-1.01967 3.7647,-3.25 1.62611,-3.49979 5.08892,-4.72938 7.55504,-2.68268 2.00849,1.6669 1.80354,4.23486 -0.55504,6.95432 -2.61344,3.01332 -2.5313,3.59317 0.25,1.765 1.2375,-0.81342 2.74459,-3.00581 3.34909,-4.87197 0.70099,-2.16407 2.23404,-3.97797 4.23256,-5.00799 l 3.13348,-1.61495 -2.47838,-4.88505 C 301.97931,208.44271 301.18665,203 302.97432,203 304.28453,203 307,197.61347 307,195.01448 c 0,-1.14667 0.65803,-3.08913 1.46229,-4.31658 1.27103,-1.93984 1.27677,-2.75271 0.0439,-6.21482 C 305.3724,175.68293 307.42881,168 312.91803,168 c 2.44446,0 2.7439,-0.31768 2.33172,-2.47383 -0.31835,-1.66534 0.53801,-4.00001 2.62033,-7.14374 4.52711,-6.83468 4.88274,-10.28696 1.74285,-16.91851 C 318.17582,138.4287 317,135.33983 317,134.59978 c 0,-1.50486 -3.28674,-9.61012 -5.63401,-13.89374 -1.11735,-2.03909 -1.27986,-3.52507 -0.60147,-5.5 C 311.9455,111.76793 311.33803,110 308.97568,110 c -2.18336,0 -3.45298,1.58698 -1.99199,2.48992 0.55897,0.34546 1.01631,1.69623 1.01631,3.00171 0,4.36646 -6.70891,4.54688 -8.78932,0.23637 -0.93491,-1.93709 -1.08416,-1.6108 -1.143,2.49895 -0.0558,3.89798 -0.5061,5.01421 -2.56768,6.36501 -2.83846,1.85983 -3.23493,4.55321 -0.94944,6.45 2.38853,1.9823 1.43627,6.26361 -1.55056,6.97125 l -2.5,0.5923 2.81164,1.85265 c 2.56154,1.68784 2.75163,2.21687 2.13694,5.94724 -0.37109,2.25203 -1.05696,4.57038 -1.52416,5.1519 -0.4672,0.58151 -1.5205,3.50651 -2.34068,6.5 -3.82799,13.97143 -6.91402,20.56481 -10.70417,22.86974 -1.63291,0.99303 -4.08581,3.31937 -5.4509,5.16964 -2.83725,3.84568 -9.90373,8.90332 -12.4396,8.90332 -0.94049,0 -3.46027,1.19273 -5.59952,2.65052 -2.22852,1.51861 -5.38422,2.693 -7.38955,2.75 l -3.5,0.0995 0.25827,-4.9075 c 0.14205,-2.69913 0.76867,-5.5225 1.3925,-6.27417 1.85208,-2.23162 0.18734,-2.65894 -2.59696,-0.6666 -2.17383,1.55549 -2.49063,2.38259 -1.99998,5.2214 0.46926,2.71509 0.0304,4.08068 -2.24978,7 -6.56514,8.40548 -8.66559,12.16533 -7.46625,13.36467 0.63921,0.63921 1.1622,2.21319 1.1622,3.49774 0,1.82187 -1.00794,2.76759 -4.58291,4.3 -4.85423,2.08077 -9.39282,2.53465 -10.96709,1.09676 -0.53736,-0.4908 -6.16228,-0.44185 -12.95,0.11271 -6.6,0.53921 -14.925,1.08443 -18.5,1.21158 -8.99487,0.31992 -8.57175,0.19219 -12.11691,3.65769 -1.75222,1.71285 -4.58024,3.71172 -6.28447,4.44192 -1.70424,0.73021 -5.01203,3.15378 -7.35064,5.38573 -2.36021,2.25254 -5.2522,4.06488 -6.5,4.07338 -2.79978,0.0191 -4.13442,0.88766 -5.57726,3.62968 -1.97244,3.74848 1.05668,4.83898 12.51592,4.50581 5.08459,-0.14783 5.19281,-0.21475 5.5,-3.4008 0.30919,-3.20673 0.37992,-3.2487 5.31336,-3.15209 3.03735,0.0595 5.2931,-0.39401 5.74669,-1.15529 0.48913,-0.82093 2.09657,-1.07214 4.66017,-0.72829 2.689,0.36067 4.63699,0.0182 6.22582,-1.09471 1.27178,-0.89079 3.53565,-1.61962 5.03081,-1.61962 1.49516,0 3.01582,-0.48111 3.37923,-1.06912 0.36342,-0.58802 2.30247,-0.96379 4.30902,-0.83505 2.00654,0.12874 5.12919,-0.10495 6.93922,-0.51933 2.16958,-0.49668 3.80154,-0.32966 4.78939,0.49018 1.29077,1.07125 0.93864,1.76559 -2.54096,5.01026 -3.58941,3.34707 -5.66098,7.04329 -3.03939,5.42306 0.55,-0.33992 1,-0.0864 1,0.56343 0,0.88042 0.3822,0.86426 1.5,-0.0634 0.825,-0.68469 1.5,-2.01135 1.5,-2.94813 0,-2.39656 4.56071,-6.43442 6.44912,-5.70977 1.73469,0.66567 2.1579,6.1647 0.55088,7.1579 -0.55,0.33992 -1,2.48707 -1,4.77145 0,3.33136 0.54429,4.58857 2.75,6.35197 2.55577,2.04327 2.79709,2.07334 3.41668,0.42568 0.36668,-0.97507 1.90529,-2.74715 3.41913,-3.93794 z M 190,248 c 0,-1.65217 -0.66667,-2 -3.83333,-2 -4.76824,0 -5.83923,0.94293 -2.91074,2.56269 C 186.89227,250.57398 190,250.31469 190,248 z M 297,103.37157 c 0,-0.77795 1.03583,-1.8864 2.30184,-2.46324 l 2.30185,-1.048787 -3.30185,-3.500974 C 296.47795,94.424684 295,91.795811 295,90.485502 c 0,-4.403387 7.26457,-7.281491 10.01478,-3.967692 1.11704,1.345953 1.6469,1.28934 4.67961,-0.5 3.56342,-2.10247 9.21752,-2.678406 10.85561,-1.105771 0.5225,0.501622 3.65,2.316794 6.95,4.033716 3.3,1.716922 6.80031,3.669004 7.77847,4.337961 2.20476,1.507828 3.3218,0.04175 4.27731,-5.613854 0.45481,-2.691992 1.96047,-5.196268 4.94334,-8.221981 3.65906,-3.711609 5.07631,-4.451216 9.64511,-5.033408 5.44129,-0.693372 6.90354,-1.242315 10.20687,-3.831757 1.7818,-1.396729 1.75403,-1.578329 -0.7417,-4.850398 -1.42604,-1.869639 -2.87521,-4.81137 -3.22037,-6.537182 -0.5534,-2.76701 -0.86329,-3.011687 -2.62215,-2.070374 -1.09702,0.587107 -3.40585,0.812349 -5.13073,0.500539 -1.72488,-0.311811 -4.91249,-0.864667 -7.08357,-1.228569 -4.58076,-0.767795 -15.45101,-8.320119 -20.24825,-14.067878 -8.07044,-9.669497 -9.2496,-10.783588 -10.3008,-9.732382 -0.73257,0.73257 -0.60011,2.124806 0.43872,4.611064 1.90754,4.565396 1.05051,23.666143 -1.09888,24.490944 C 313.454,62.03976 313,63.995216 313,67.484544 c 0,3.016423 -0.53461,5.698276 -1.25,6.270622 -2.59657,2.077371 -5.79355,2.369593 -8.91081,0.814498 C 301.10863,73.706349 299.56515,73 299.40923,73 c -0.15592,0 -0.025,1.592756 0.29089,3.539458 0.45705,2.816507 0.10222,4.042034 -1.73719,6 C 296.69157,83.892756 295.06519,85 294.34874,85 c -0.71645,0 -2.05294,1.145106 -2.96997,2.54468 -1.60857,2.454992 -1.57227,2.643908 1.02995,5.360047 2.46276,2.570562 2.63779,3.263959 2.01293,7.974343 -0.59947,4.51909 -0.48202,5.08132 0.947,4.53296 0.89724,-0.3443 1.63135,-1.26251 1.63135,-2.04046 z"
         style="fill:#cf4d6c" />
      <path
         inkscape:connector-curvature="0"
         id="path2988"
         d="M 134.13965,302.46405 C 131.63745,300.35859 131,299.05299 131,296.03355 c 0,-2.14775 0.64967,-4.32784 1.5,-5.03355 0.825,-0.68469 1.5,-2.71579 1.5,-4.51356 0,-2.33942 1.1359,-4.64327 3.99556,-8.10386 4.1597,-5.0338 4.4319,-7.26607 1.26605,-10.38258 -1.59814,-1.57323 -1.60082,-1.49592 -0.13352,3.85669 0.21096,0.76954 -1.29824,2.24301 -3.48721,3.40466 -7.21965,3.83137 -10.28119,0.73435 -11.13231,-11.26135 -0.38911,-5.48406 1.48676,-8 5.96476,-8 2.19942,0 4.36143,-1.06629 7.09502,-3.49922 2.16241,-1.92457 4.6629,-3.49957 5.55665,-3.5 1.00832,-4.8e-4 1.85464,-1.14896 2.23011,-3.02635 0.79261,-3.96304 4.88632,-7.97443 8.13807,-7.97443 1.64702,0 4.06854,-1.42639 6.67761,-3.93342 2.25144,-2.16338 5.38405,-4.46798 6.96137,-5.12132 1.57731,-0.65335 2.86784,-1.56075 2.86784,-2.01645 0,-0.4557 -1.30598,-2.76364 -2.90218,-5.12876 -22.34076,-33.10273 -22.18139,-76.8472 0.40554,-111.31548 5.94877,-9.07799 20.76228,-23.19583 30.29961,-28.876694 27.82239,-16.57226 61.73465,-19.128176 90.93036,-6.853282 l 6.76667,2.844945 0,-4.049769 c 0,-3.835787 0.17127,-4.066294 3.24141,-4.362488 1.78278,-0.171995 4.19694,0.356558 5.36481,1.174561 3.49569,2.448482 4.89378,1.043151 4.89378,-4.919142 0,-3.60431 0.46741,-5.604895 1.43616,-6.147039 1.89721,-1.061729 2.50575,-17.803688 0.76259,-20.979921 C 308.43817,33.285659 311.16255,28 316.51578,28 c 2.03229,0 8.71099,6.329996 13.46952,12.766249 3.6837,4.982473 13.06841,11.137301 16.09861,10.558042 1.58343,-0.302692 3.03095,0.109186 3.84935,1.095296 2.33002,2.807499 5.36449,1.77725 8.89462,-3.019857 3.7845,-5.142778 5.557,-6.155127 7.68485,-4.389161 2.07286,1.720314 1.85456,4.707045 -0.56925,7.78842 -2.23612,2.842764 -2.02532,5.62028 0.74777,9.852546 1.29554,1.977243 2.14532,2.323633 4.45563,1.816205 4.31049,-0.946743 5.06246,2.142802 1.27147,5.223997 -6.6216,5.381821 -11.61481,8.078822 -16.13952,8.717496 -7.08054,0.999433 -10.93882,4.745282 -13.07756,12.696473 -1.62696,6.048551 -1.89392,6.411143 -4.93722,6.705908 -2.22952,0.215944 -4.98978,-0.709343 -8.99066,-3.013828 -10.15201,-5.847502 -12.97851,-7.12492 -14.48551,-6.54663 -1.06407,0.408321 0.63554,2.745375 6.11944,8.414559 19.08243,19.727185 28.46816,42.750995 28.46816,69.834285 0,27.36568 -9.58333,50.63383 -28.86382,70.08085 -12.95221,13.06407 -27.93358,21.66331 -46.33623,26.59678 -5.89315,1.57987 -10.92631,2.07945 -21.67543,2.15145 -19.79481,0.1326 -30.55678,-0.69889 -31.89926,-2.46462 -0.60541,-0.79627 -3.23636,-2.25302 -5.84655,-3.23722 l -4.74582,-1.78946 -2.99693,2.99694 c -1.64831,1.64831 -3.43906,4.15981 -3.97944,5.5811 -1.30437,3.43078 -3.597,3.26136 -7.13616,-0.52733 l -2.90659,-3.11151 -3.9975,3.61151 C 186.79312,268.37482 184.54553,270 183.99712,270 183.4487,270 183,271.5199 183,273.37756 c 0,1.85765 -0.58932,3.86665 -1.30961,4.46443 -1.33383,1.10698 -4.86288,0.49759 -7.77156,-1.34199 C 172.04216,275.31312 169,269.41473 169,266.96299 c 0,-0.95135 -0.9,-1.96508 -2,-2.25274 -3.11252,-0.81394 -2.35719,-3.53417 1.41951,-5.11217 1.88073,-0.78582 3.96071,-2.47936 4.62219,-3.76342 0.66147,-1.28406 2.35688,-3.57216 3.76758,-5.08466 1.75092,-1.87727 2.10883,-2.75433 1.12781,-2.76365 -0.7904,-0.008 -2.44959,-0.285 -3.68709,-0.61664 -1.87898,-0.50354 -2.25,-0.20447 -2.25,1.81366 0,3.55592 -1.84091,4.81663 -7.03333,4.81663 -5.55116,0 -6.67929,0.81256 -3.86494,2.78381 1.52037,1.06491 1.9745,2.24343 1.66833,4.32949 -0.3037,2.06924 0.22594,3.47377 1.90463,5.05081 2.31068,2.17078 3.38374,8.83589 1.42255,8.83589 -1.3549,0 -8.09724,10.56184 -8.09724,12.68428 0,2.16179 -3.67663,9.32522 -5.54202,10.79789 -0.70909,0.5598 -1.44432,1.91783 -1.63384,3.01783 -0.53241,3.09026 -4.60448,3.20794 -5.76084,0.16648 -1.4546,-3.82587 -2.87459,-4.04163 -2.71024,-0.4118 0.12677,2.79978 -0.21143,3.28691 -2.46341,3.54827 -1.68665,0.19574 -3.72135,-0.6319 -5.75,-2.3389 z m 5.07128,-9.21405 c 1.69777,-2.0525 4.62863,-1.4245 6.47043,1.38644 l 1.72746,2.63644 2.7885,-3.34017 c 1.53367,-1.83709 3.08458,-4.93599 3.44645,-6.88644 0.70839,-3.81806 2.09974,-6.38768 6.69242,-12.35994 l 2.93272,-3.81367 -3.26091,-3.36441 c -2.49788,-2.57716 -3.11915,-3.92926 -2.65505,-5.77837 0.487,-1.94035 0.0704,-2.67713 -2.12354,-3.75532 -1.50118,-0.73775 -3.66795,-2.41097 -4.81506,-3.71826 -2.65402,-3.02465 -5.62825,-2.39612 -10.91408,2.30645 -2.61845,2.32951 -4.85242,3.43742 -6.93192,3.43778 -2.90348,5e-4 -3.0609,0.202 -2.92965,3.75 0.34985,9.45786 0.24901,9.09159 2.35171,8.54173 1.53783,-0.40216 1.85195,-1.07217 1.38148,-2.94668 -0.74477,-2.9674 1.97498,-6.34558 5.10878,-6.34558 3.36407,0 6.68269,4.26967 7.25328,9.33193 0.46585,4.13309 0.20349,4.78063 -3.61582,8.92409 -2.92617,3.17452 -4.11813,5.34052 -4.11813,7.48337 0,1.65864 -0.675,3.57592 -1.5,4.26061 -1.826,1.51544 -1.93862,4.15675 -0.25,5.86321 1.00355,1.01415 1.31674,0.70855 1.58849,-1.55 0.18616,-1.54727 0.80376,-3.37571 1.37244,-4.06321 z M 179,271.02568 c 0,-2.22983 0.68834,-3.33386 2.75,-4.41072 1.5125,-0.79003 4.07169,-2.82658 5.68709,-4.52568 3.39797,-3.57404 7.38215,-4.05149 9.96769,-1.1945 1.67819,1.85438 1.76145,1.8468 3.90499,-0.35545 6.76332,-6.94859 6.91469,-7.20705 5.52438,-9.43329 C 205.75477,249.37768 204.52858,249 199.99658,249 c -4.7677,0 -5.65721,0.30746 -6.50945,2.25 -0.76632,1.7467 -1.95434,2.31959 -5.31103,2.56111 -2.37815,0.17111 -4.89735,-0.1648 -5.59821,-0.74647 -1.35316,-1.12302 -2.10881,-0.45875 -6.18304,5.43536 -3.60624,5.21707 -3.62613,8.73586 -0.0806,14.25 1.40122,2.1792 2.68571,1.35451 2.68571,-1.72432 z m 49.58581,-16.91452 c 1.51385,-1.19079 3.23884,-2.00135 3.83332,-1.80125 0.59448,0.20011 1.62482,-0.9203 2.28964,-2.48979 0.84673,-1.99892 2.15982,-3.04384 4.38406,-3.48869 l 3.17529,-0.63505 -2.63406,-1.38013 c -1.44873,-0.75907 -2.62728,-1.92825 -2.619,-2.59819 0.0243,-1.9627 2.55602,-8.68914 3.70173,-9.83485 1.71408,-1.71408 5.74867,-0.62434 6.07308,1.64033 0.39399,2.75028 4.33301,4.19893 12.89809,4.74352 7.25759,0.46145 9.31204,-0.23094 9.31204,-3.13832 0,-4.15395 8.26342,-7.21182 9.65923,-3.57439 0.46139,1.20237 1.01707,0.86271 2.45391,-1.5 1.18048,-1.94114 2.68287,-3.06224 4.12216,-3.07599 1.56458,-0.0149 2.72842,-1.01967 3.7647,-3.25 1.62611,-3.49979 5.08892,-4.72938 7.55504,-2.68268 2.00849,1.6669 1.80354,4.23486 -0.55504,6.95432 -2.61344,3.01332 -2.5313,3.59317 0.25,1.765 1.2375,-0.81342 2.74459,-3.00581 3.34909,-4.87197 0.70099,-2.16407 2.23404,-3.97797 4.23256,-5.00799 l 3.13348,-1.61495 -2.47838,-4.88505 C 301.97931,208.44271 301.18665,203 302.97432,203 304.28453,203 307,197.61347 307,195.01448 c 0,-1.14667 0.65803,-3.08913 1.46229,-4.31658 1.27103,-1.93984 1.27677,-2.75271 0.0439,-6.21482 C 305.3724,175.68293 307.42881,168 312.91803,168 c 2.44446,0 2.7439,-0.31768 2.33172,-2.47383 -0.31835,-1.66534 0.53801,-4.00001 2.62033,-7.14374 4.52711,-6.83468 4.88274,-10.28696 1.74285,-16.91851 C 318.17582,138.4287 317,135.33983 317,134.59978 c 0,-1.50486 -3.28674,-9.61012 -5.63401,-13.89374 -1.11735,-2.03909 -1.27986,-3.52507 -0.60147,-5.5 C 311.9455,111.76793 311.33803,110 308.97568,110 c -2.18336,0 -3.45298,1.58698 -1.99199,2.48992 0.55897,0.34546 1.01631,1.69623 1.01631,3.00171 0,4.36646 -6.70891,4.54688 -8.78932,0.23637 -0.93491,-1.93709 -1.08416,-1.6108 -1.143,2.49895 -0.0558,3.89798 -0.5061,5.01421 -2.56768,6.36501 -2.83846,1.85983 -3.23493,4.55321 -0.94944,6.45 2.38853,1.9823 1.43627,6.26361 -1.55056,6.97125 l -2.5,0.5923 2.81164,1.85265 c 2.56154,1.68784 2.75163,2.21687 2.13694,5.94724 -0.37109,2.25203 -1.05696,4.57038 -1.52416,5.1519 -0.4672,0.58151 -1.5205,3.50651 -2.34068,6.5 -3.82799,13.97143 -6.91402,20.56481 -10.70417,22.86974 -1.63291,0.99303 -4.08581,3.31937 -5.4509,5.16964 -2.83725,3.84568 -9.90373,8.90332 -12.4396,8.90332 -0.94049,0 -3.46027,1.19273 -5.59952,2.65052 -2.22852,1.51861 -5.38422,2.693 -7.38955,2.75 l -3.5,0.0995 0.25827,-4.9075 c 0.14205,-2.69913 0.76867,-5.5225 1.3925,-6.27417 1.85208,-2.23162 0.18734,-2.65894 -2.59696,-0.6666 -2.17383,1.55549 -2.49063,2.38259 -1.99998,5.2214 0.46926,2.71509 0.0304,4.08068 -2.24978,7 -6.56514,8.40548 -8.66559,12.16533 -7.46625,13.36467 0.63921,0.63921 1.1622,2.21319 1.1622,3.49774 0,1.82187 -1.00794,2.76759 -4.58291,4.3 -4.85423,2.08077 -9.39282,2.53465 -10.96709,1.09676 -0.53736,-0.4908 -6.16228,-0.44185 -12.95,0.11271 -6.6,0.53921 -14.925,1.08443 -18.5,1.21158 -8.99487,0.31992 -8.57175,0.19219 -12.11691,3.65769 -1.75222,1.71285 -4.58024,3.71172 -6.28447,4.44192 -1.70424,0.73021 -5.01203,3.15378 -7.35064,5.38573 -2.36021,2.25254 -5.2522,4.06488 -6.5,4.07338 -2.79978,0.0191 -4.13442,0.88766 -5.57726,3.62968 -1.97244,3.74848 1.05668,4.83898 12.51592,4.50581 5.08459,-0.14783 5.19281,-0.21475 5.5,-3.4008 0.30919,-3.20673 0.37992,-3.2487 5.31336,-3.15209 3.03735,0.0595 5.2931,-0.39401 5.74669,-1.15529 0.48913,-0.82093 2.09657,-1.07214 4.66017,-0.72829 2.689,0.36067 4.63699,0.0182 6.22582,-1.09471 1.27178,-0.89079 3.53565,-1.61962 5.03081,-1.61962 1.49516,0 3.01582,-0.48111 3.37923,-1.06912 0.36342,-0.58802 2.30247,-0.96379 4.30902,-0.83505 2.00654,0.12874 5.12919,-0.10495 6.93922,-0.51933 2.16958,-0.49668 3.80154,-0.32966 4.78939,0.49018 1.29077,1.07125 0.93864,1.76559 -2.54096,5.01026 -3.58941,3.34707 -5.66098,7.04329 -3.03939,5.42306 0.55,-0.33992 1,-0.0864 1,0.56343 0,0.88042 0.3822,0.86426 1.5,-0.0634 0.825,-0.68469 1.5,-2.01135 1.5,-2.94813 0,-2.39656 4.56071,-6.43442 6.44912,-5.70977 1.73469,0.66567 2.1579,6.1647 0.55088,7.1579 -0.55,0.33992 -1,2.48707 -1,4.77145 0,3.33136 0.54429,4.58857 2.75,6.35197 2.55577,2.04327 2.79709,2.07334 3.41668,0.42568 0.36668,-0.97507 1.90529,-2.74715 3.41913,-3.93794 z M 190,248 c 0,-1.65217 -0.66667,-2 -3.83333,-2 -4.76824,0 -5.83923,0.94293 -2.91074,2.56269 C 186.89227,250.57398 190,250.31469 190,248 z M 297,103.37157 c 0,-0.77795 1.03583,-1.8864 2.30184,-2.46324 l 2.30185,-1.048787 -3.30185,-3.500974 C 296.47795,94.424684 295,91.795811 295,90.485502 c 0,-4.403387 7.26457,-7.281491 10.01478,-3.967692 1.11704,1.345953 1.6469,1.28934 4.67961,-0.5 3.56342,-2.10247 9.21752,-2.678406 10.85561,-1.105771 0.5225,0.501622 3.65,2.316794 6.95,4.033716 3.3,1.716922 6.80031,3.669004 7.77847,4.337961 2.20476,1.507828 3.3218,0.04175 4.27731,-5.613854 0.45481,-2.691992 1.96047,-5.196268 4.94334,-8.221981 3.65906,-3.711609 5.07631,-4.451216 9.64511,-5.033408 5.44129,-0.693372 6.90354,-1.242315 10.20687,-3.831757 1.7818,-1.396729 1.75403,-1.578329 -0.7417,-4.850398 -1.42604,-1.869639 -2.87521,-4.81137 -3.22037,-6.537182 -0.5534,-2.76701 -0.86329,-3.011687 -2.62215,-2.070374 -1.09702,0.587107 -3.40585,0.812349 -5.13073,0.500539 -1.72488,-0.311811 -4.91249,-0.864667 -7.08357,-1.228569 -4.58076,-0.767795 -15.45101,-8.320119 -20.24825,-14.067878 -8.07044,-9.669497 -9.2496,-10.783588 -10.3008,-9.732382 -0.73257,0.73257 -0.60011,2.124806 0.43872,4.611064 1.90754,4.565396 1.05051,23.666143 -1.09888,24.490944 C 313.454,62.03976 313,63.995216 313,67.484544 c 0,3.016423 -0.53461,5.698276 -1.25,6.270622 -2.59657,2.077371 -5.79355,2.369593 -8.91081,0.814498 C 301.10863,73.706349 299.56515,73 299.40923,73 c -0.15592,0 -0.025,1.592756 0.29089,3.539458 0.45705,2.816507 0.10222,4.042034 -1.73719,6 C 296.69157,83.892756 295.06519,85 294.34874,85 c -0.71645,0 -2.05294,1.145106 -2.96997,2.54468 -1.60857,2.454992 -1.57227,2.643908 1.02995,5.360047 2.46276,2.570562 2.63779,3.263959 2.01293,7.974343 -0.59947,4.51909 -0.48202,5.08132 0.947,4.53296 0.89724,-0.3443 1.63135,-1.26251 1.63135,-2.04046 z"
         style="fill:#c6294e" />
      <path
         inkscape:connector-curvature="0"
         id="path2986"
         d="M 134.13965,302.46405 C 131.63745,300.35859 131,299.05299 131,296.03355 c 0,-2.14775 0.64967,-4.32784 1.5,-5.03355 0.825,-0.68469 1.5,-2.71579 1.5,-4.51356 0,-2.33942 1.1359,-4.64327 3.99556,-8.10386 4.1597,-5.0338 4.4319,-7.26607 1.26605,-10.38258 -1.59814,-1.57323 -1.60082,-1.49592 -0.13352,3.85669 0.21096,0.76954 -1.29824,2.24301 -3.48721,3.40466 -7.21965,3.83137 -10.28119,0.73435 -11.13231,-11.26135 -0.38911,-5.48406 1.48676,-8 5.96476,-8 2.19942,0 4.36143,-1.06629 7.09502,-3.49922 2.16241,-1.92457 4.6629,-3.49957 5.55665,-3.5 1.00832,-4.8e-4 1.85464,-1.14896 2.23011,-3.02635 0.79365,-3.96821 4.88756,-7.97443 8.149,-7.97443 1.62817,0 3.97373,-1.34202 6.29546,-3.60194 2.03523,-1.98107 5.38257,-4.46249 7.43853,-5.51426 l 3.7381,-1.9123 -3.49869,-4.86992 c -1.92427,-2.67845 -5.26667,-8.6427 -7.42755,-13.25389 C 133.37567,151.92624 165.40598,84.945055 226.5,69.888562 c 21.04176,-5.185698 44.2097,-2.921878 65.5,6.400234 l 3.5,1.5325 0,-4.160648 c 0,-3.96082 0.15568,-4.175667 3.24141,-4.473366 1.78278,-0.171995 4.19694,0.356558 5.36481,1.174561 3.49569,2.448482 4.89378,1.043151 4.89378,-4.919142 0,-3.60431 0.46741,-5.604895 1.43616,-6.147039 1.89721,-1.061729 2.50575,-17.803688 0.76259,-20.979921 C 308.43817,33.285659 311.16255,28 316.51578,28 c 2.03229,0 8.71099,6.329996 13.46952,12.766249 3.6837,4.982473 13.06841,11.137301 16.09861,10.558042 1.58343,-0.302692 3.03095,0.109186 3.84935,1.095296 2.33002,2.807499 5.36449,1.77725 8.89462,-3.019857 3.7845,-5.142778 5.557,-6.155127 7.68485,-4.389161 2.07286,1.720314 1.85456,4.707045 -0.56925,7.78842 -2.23612,2.842764 -2.02532,5.62028 0.74777,9.852546 1.29554,1.977243 2.14532,2.323633 4.45563,1.816205 4.31049,-0.946743 5.06246,2.142802 1.27147,5.223997 -6.6216,5.381821 -11.61481,8.078822 -16.13952,8.717496 -7.08054,0.999433 -10.93882,4.745282 -13.07756,12.696473 -1.62696,6.048551 -1.89392,6.411143 -4.93722,6.705908 -2.22952,0.215944 -4.98978,-0.709343 -8.99066,-3.013828 -10.60474,-6.108271 -12.9661,-7.129684 -14.8296,-6.414591 -1.54543,0.593037 -1.04838,1.37004 3.32213,5.193258 11.6484,10.189737 23.6873,30.036477 28.1602,46.423547 4.53897,16.62911 4.54987,36.20342 0.0295,53 -4.93238,18.32759 -18.38164,38.75418 -33.39188,50.71525 -9.94864,7.92768 -27.09192,16.51056 -38.56376,19.30718 -11.23759,2.73952 -29.16968,3.54522 -39.12757,1.75804 -5.31048,-0.9531 -8.30959,-1.06462 -9.87271,-0.36714 -1.80852,0.80698 -2.56611,0.60543 -3.89561,-1.03643 -0.90775,-1.12103 -3.75834,-2.84324 -6.33464,-3.82714 l -4.68417,-1.7889 -3.0354,3.03539 c -1.66947,1.66947 -3.47752,4.19828 -4.0179,5.61957 -1.30437,3.43078 -3.597,3.26136 -7.13616,-0.52733 l -2.90659,-3.11151 -3.9975,3.61151 C 186.79312,268.37482 184.54553,270 183.99712,270 183.4487,270 183,271.5199 183,273.37756 c 0,1.85765 -0.58932,3.86665 -1.30961,4.46443 -1.33383,1.10698 -4.86288,0.49759 -7.77156,-1.34199 C 172.04216,275.31312 169,269.41473 169,266.96299 c 0,-0.95135 -0.9,-1.96508 -2,-2.25274 -3.11252,-0.81394 -2.35719,-3.53417 1.41951,-5.11217 1.88073,-0.78582 3.96071,-2.47936 4.62219,-3.76342 0.66147,-1.28406 2.35688,-3.57216 3.76758,-5.08466 1.75092,-1.87727 2.10883,-2.75433 1.12781,-2.76365 -0.7904,-0.008 -2.44959,-0.285 -3.68709,-0.61664 -1.87898,-0.50354 -2.25,-0.20447 -2.25,1.81366 0,3.55592 -1.84091,4.81663 -7.03333,4.81663 -5.55116,0 -6.67929,0.81256 -3.86494,2.78381 1.52037,1.06491 1.9745,2.24343 1.66833,4.32949 -0.3037,2.06924 0.22594,3.47377 1.90463,5.05081 2.31068,2.17078 3.38374,8.83589 1.42255,8.83589 -1.3549,0 -8.09724,10.56184 -8.09724,12.68428 0,2.16179 -3.67663,9.32522 -5.54202,10.79789 -0.70909,0.5598 -1.44432,1.91783 -1.63384,3.01783 -0.53241,3.09026 -4.60448,3.20794 -5.76084,0.16648 -1.4546,-3.82587 -2.87459,-4.04163 -2.71024,-0.4118 0.12677,2.79978 -0.21143,3.28691 -2.46341,3.54827 -1.68665,0.19574 -3.72135,-0.6319 -5.75,-2.3389 z m 5.07128,-9.21405 c 1.69777,-2.0525 4.62863,-1.4245 6.47043,1.38644 l 1.72746,2.63644 2.7885,-3.34017 c 1.53367,-1.83709 3.08458,-4.93599 3.44645,-6.88644 0.70839,-3.81806 2.09974,-6.38768 6.69242,-12.35994 l 2.93272,-3.81367 -3.26091,-3.36441 c -2.49788,-2.57716 -3.11915,-3.92926 -2.65505,-5.77837 0.487,-1.94035 0.0704,-2.67713 -2.12354,-3.75532 -1.50118,-0.73775 -3.66795,-2.41097 -4.81506,-3.71826 -2.65402,-3.02465 -5.62825,-2.39612 -10.91408,2.30645 -2.61845,2.32951 -4.85242,3.43742 -6.93192,3.43778 -2.90348,5e-4 -3.0609,0.202 -2.92965,3.75 0.34985,9.45786 0.24901,9.09159 2.35171,8.54173 1.53783,-0.40216 1.85195,-1.07217 1.38148,-2.94668 -0.74477,-2.9674 1.97498,-6.34558 5.10878,-6.34558 3.36407,0 6.68269,4.26967 7.25328,9.33193 0.46585,4.13309 0.20349,4.78063 -3.61582,8.92409 -2.92617,3.17452 -4.11813,5.34052 -4.11813,7.48337 0,1.65864 -0.675,3.57592 -1.5,4.26061 -1.826,1.51544 -1.93862,4.15675 -0.25,5.86321 1.00355,1.01415 1.31674,0.70855 1.58849,-1.55 0.18616,-1.54727 0.80376,-3.37571 1.37244,-4.06321 z M 179,271.02568 c 0,-2.22983 0.68834,-3.33386 2.75,-4.41072 1.5125,-0.79003 4.07169,-2.82658 5.68709,-4.52568 3.39797,-3.57404 7.38215,-4.05149 9.96769,-1.1945 1.67819,1.85438 1.76145,1.8468 3.90499,-0.35545 6.76332,-6.94859 6.91469,-7.20705 5.52438,-9.43329 C 205.75477,249.37768 204.52858,249 199.99658,249 c -4.7677,0 -5.65721,0.30746 -6.50945,2.25 -0.76632,1.7467 -1.95434,2.31959 -5.31103,2.56111 -2.37815,0.17111 -4.89735,-0.1648 -5.59821,-0.74647 -1.35316,-1.12302 -2.10881,-0.45875 -6.18304,5.43536 -3.60624,5.21707 -3.62613,8.73586 -0.0806,14.25 1.40122,2.1792 2.68571,1.35451 2.68571,-1.72432 z m 49.58581,-16.91452 c 1.51385,-1.19079 3.23884,-2.00135 3.83332,-1.80125 0.59448,0.20011 1.62482,-0.9203 2.28964,-2.48979 0.84673,-1.99892 2.15982,-3.04384 4.38406,-3.48869 l 3.17529,-0.63505 -2.63406,-1.38013 c -1.44873,-0.75907 -2.62728,-1.92825 -2.619,-2.59819 0.0243,-1.9627 2.55602,-8.68914 3.70173,-9.83485 1.71408,-1.71408 5.74867,-0.62434 6.07308,1.64033 0.39399,2.75028 4.33301,4.19893 12.89809,4.74352 7.25759,0.46145 9.31204,-0.23094 9.31204,-3.13832 0,-4.15395 8.26342,-7.21182 9.65923,-3.57439 0.46139,1.20237 1.01707,0.86271 2.45391,-1.5 1.18048,-1.94114 2.68287,-3.06224 4.12216,-3.07599 1.56458,-0.0149 2.72842,-1.01967 3.7647,-3.25 1.62611,-3.49979 5.08892,-4.72938 7.55504,-2.68268 2.00849,1.6669 1.80354,4.23486 -0.55504,6.95432 -2.61344,3.01332 -2.5313,3.59317 0.25,1.765 1.2375,-0.81342 2.74459,-3.00581 3.34909,-4.87197 0.70099,-2.16407 2.23404,-3.97797 4.23256,-5.00799 l 3.13348,-1.61495 -2.47838,-4.88505 C 301.97931,208.44271 301.18665,203 302.97432,203 304.28453,203 307,197.61347 307,195.01448 c 0,-1.14667 0.65803,-3.08913 1.46229,-4.31658 1.27103,-1.93984 1.27677,-2.75271 0.0439,-6.21482 C 305.3724,175.68293 307.42881,168 312.91803,168 c 2.44446,0 2.7439,-0.31768 2.33172,-2.47383 -0.31835,-1.66534 0.53801,-4.00001 2.62033,-7.14374 4.52711,-6.83468 4.88274,-10.28696 1.74285,-16.91851 C 318.17582,138.4287 317,135.33983 317,134.59978 c 0,-1.50486 -3.28674,-9.61012 -5.63401,-13.89374 -1.11735,-2.03909 -1.27986,-3.52507 -0.60147,-5.5 C 311.9455,111.76793 311.33803,110 308.97568,110 c -2.18336,0 -3.45298,1.58698 -1.99199,2.48992 0.55897,0.34546 1.01631,1.69623 1.01631,3.00171 0,4.36646 -6.70891,4.54688 -8.78932,0.23637 -0.93491,-1.93709 -1.08416,-1.6108 -1.143,2.49895 -0.0558,3.89798 -0.5061,5.01421 -2.56768,6.36501 -2.83846,1.85983 -3.23493,4.55321 -0.94944,6.45 2.38853,1.9823 1.43627,6.26361 -1.55056,6.97125 l -2.5,0.5923 2.81164,1.85265 c 2.56154,1.68784 2.75163,2.21687 2.13694,5.94724 -0.37109,2.25203 -1.05696,4.57038 -1.52416,5.1519 -0.4672,0.58151 -1.5205,3.50651 -2.34068,6.5 -3.82799,13.97143 -6.91402,20.56481 -10.70417,22.86974 -1.63291,0.99303 -4.08581,3.31937 -5.4509,5.16964 -2.83725,3.84568 -9.90373,8.90332 -12.4396,8.90332 -0.94049,0 -3.46027,1.19273 -5.59952,2.65052 -2.22852,1.51861 -5.38422,2.693 -7.38955,2.75 l -3.5,0.0995 0.25827,-4.9075 c 0.14205,-2.69913 0.76867,-5.5225 1.3925,-6.27417 1.85208,-2.23162 0.18734,-2.65894 -2.59696,-0.6666 -2.17383,1.55549 -2.49063,2.38259 -1.99998,5.2214 0.46926,2.71509 0.0304,4.08068 -2.24978,7 -6.56514,8.40548 -8.66559,12.16533 -7.46625,13.36467 0.63921,0.63921 1.1622,2.21319 1.1622,3.49774 0,1.82187 -1.00794,2.76759 -4.58291,4.3 -4.85423,2.08077 -9.39282,2.53465 -10.96709,1.09676 -0.53736,-0.4908 -6.16228,-0.44185 -12.95,0.11271 -6.6,0.53921 -14.925,1.08443 -18.5,1.21158 -8.99487,0.31992 -8.57175,0.19219 -12.11691,3.65769 -1.75222,1.71285 -4.58024,3.71172 -6.28447,4.44192 -1.70424,0.73021 -5.01203,3.15378 -7.35064,5.38573 -2.36021,2.25254 -5.2522,4.06488 -6.5,4.07338 -2.79978,0.0191 -4.13442,0.88766 -5.57726,3.62968 -1.97244,3.74848 1.05668,4.83898 12.51592,4.50581 5.08459,-0.14783 5.19281,-0.21475 5.5,-3.4008 0.30919,-3.20673 0.37992,-3.2487 5.31336,-3.15209 3.03735,0.0595 5.2931,-0.39401 5.74669,-1.15529 0.48913,-0.82093 2.09657,-1.07214 4.66017,-0.72829 2.689,0.36067 4.63699,0.0182 6.22582,-1.09471 1.27178,-0.89079 3.53565,-1.61962 5.03081,-1.61962 1.49516,0 3.01582,-0.48111 3.37923,-1.06912 0.36342,-0.58802 2.30247,-0.96379 4.30902,-0.83505 2.00654,0.12874 5.12919,-0.10495 6.93922,-0.51933 2.16958,-0.49668 3.80154,-0.32966 4.78939,0.49018 1.29077,1.07125 0.93864,1.76559 -2.54096,5.01026 -3.58941,3.34707 -5.66098,7.04329 -3.03939,5.42306 0.55,-0.33992 1,-0.0864 1,0.56343 0,0.88042 0.3822,0.86426 1.5,-0.0634 0.825,-0.68469 1.5,-2.01135 1.5,-2.94813 0,-2.39656 4.56071,-6.43442 6.44912,-5.70977 1.73469,0.66567 2.1579,6.1647 0.55088,7.1579 -0.55,0.33992 -1,2.48707 -1,4.77145 0,3.33136 0.54429,4.58857 2.75,6.35197 2.55577,2.04327 2.79709,2.07334 3.41668,0.42568 0.36668,-0.97507 1.90529,-2.74715 3.41913,-3.93794 z M 190.28975,248 c 0.46228,-1.76775 0.0307,-2 -3.7167,-2 -5.14975,0 -6.31826,0.90275 -3.31712,2.56269 3.50818,1.9404 6.44059,1.70581 7.03382,-0.56269 z M 297,103.37157 c 0,-0.77795 1.03583,-1.8864 2.30184,-2.46324 l 2.30185,-1.048787 -3.30185,-3.500974 C 296.47795,94.424684 295,91.795811 295,90.485502 c 0,-4.403387 7.26457,-7.281491 10.01478,-3.967692 1.11704,1.345953 1.6469,1.28934 4.67961,-0.5 3.56342,-2.10247 9.21752,-2.678406 10.85561,-1.105771 0.5225,0.501622 3.65,2.316794 6.95,4.033716 3.3,1.716922 6.80031,3.669004 7.77847,4.337961 2.20476,1.507828 3.3218,0.04175 4.27731,-5.613854 0.45481,-2.691992 1.96047,-5.196268 4.94334,-8.221981 3.65906,-3.711609 5.07631,-4.451216 9.64511,-5.033408 5.44129,-0.693372 6.90354,-1.242315 10.20687,-3.831757 1.7818,-1.396729 1.75403,-1.578329 -0.7417,-4.850398 -1.42604,-1.869639 -2.87521,-4.81137 -3.22037,-6.537182 -0.5534,-2.76701 -0.86329,-3.011687 -2.62215,-2.070374 -1.09702,0.587107 -3.40585,0.812349 -5.13073,0.500539 -1.72488,-0.311811 -4.91249,-0.864667 -7.08357,-1.228569 -4.58076,-0.767795 -15.45101,-8.320119 -20.24825,-14.067878 -8.07044,-9.669497 -9.2496,-10.783588 -10.3008,-9.732382 -0.73257,0.73257 -0.60011,2.124806 0.43872,4.611064 1.90754,4.565396 1.05051,23.666143 -1.09888,24.490944 C 313.454,62.03976 313,63.995216 313,67.484544 c 0,3.016423 -0.53461,5.698276 -1.25,6.270622 -2.59657,2.077371 -5.79355,2.369593 -8.91081,0.814498 C 301.10863,73.706349 299.56515,73 299.40923,73 c -0.15592,0 -0.025,1.592756 0.29089,3.539458 0.45705,2.816507 0.10222,4.042034 -1.73719,6 C 296.69157,83.892756 295.06519,85 294.34874,85 c -0.71645,0 -2.05294,1.145106 -2.96997,2.54468 -1.60857,2.454992 -1.57227,2.643908 1.02995,5.360047 2.46276,2.570562 2.63779,3.263959 2.01293,7.974343 -0.59947,4.51909 -0.48202,5.08132 0.947,4.53296 0.89724,-0.3443 1.63135,-1.26251 1.63135,-2.04046 z"
         style="fill:#bb002c" />
      <path
         inkscape:connector-curvature="0"
         id="path2984"
         d="M 134.13965,302.46405 C 131.63745,300.35859 131,299.05299 131,296.03355 c 0,-2.14775 0.64967,-4.32784 1.5,-5.03355 0.825,-0.68469 1.5,-2.71579 1.5,-4.51356 0,-2.33942 1.1359,-4.64327 3.99556,-8.10386 4.1597,-5.0338 4.4319,-7.26607 1.26605,-10.38258 -1.59814,-1.57323 -1.60082,-1.49592 -0.13352,3.85669 0.21096,0.76954 -1.29824,2.24301 -3.48721,3.40466 -7.21965,3.83137 -10.28119,0.73435 -11.13231,-11.26135 -0.38911,-5.48406 1.48676,-8 5.96476,-8 2.19942,0 4.36143,-1.06629 7.09502,-3.49922 2.16241,-1.92457 4.6629,-3.49957 5.55665,-3.5 1.00832,-4.8e-4 1.85464,-1.14896 2.23011,-3.02635 0.79365,-3.96821 4.88756,-7.97443 8.149,-7.97443 1.62817,0 3.97373,-1.34202 6.29546,-3.60194 2.03523,-1.98107 5.50043,-4.51462 7.70043,-5.63011 2.2,-1.11549 4.34028,-2.60964 4.75619,-3.32032 1.92457,-3.28868 7.58831,-5.53312 13.43018,-5.32215 3.1975,0.11548 12.51824,-0.31492 20.71276,-0.95644 9.72565,-0.76138 15.30801,-0.82706 16.07665,-0.18914 0.77459,0.64285 2.26335,0.56738 4.35086,-0.22057 3.27396,-1.23578 3.9083,-2.18708 2.17336,-3.25933 -2.28467,-1.41201 0.0656,-6.21663 7.74205,-15.82673 1.55327,-1.94453 2.25795,-4.16473 2.25795,-7.11399 0,-3.83629 0.40012,-4.56456 3.80375,-6.92328 4.38195,-3.03669 6.15017,-3.22831 10.24591,-1.11032 3.69382,1.91015 3.91955,5.15533 0.45034,6.47432 -1.53056,0.58192 -2.5,1.73565 -2.5,2.97525 0,2.56524 0.2161,2.5447 5,-0.47525 2.17814,-1.375 4.72885,-2.5 5.66825,-2.5 2.53302,0 7.69105,-3.8511 10.34432,-7.72329 1.28271,-1.872 3.58392,-4.05093 5.11379,-4.84206 3.55466,-1.83818 6.63718,-8.43434 10.45738,-22.37735 0.82018,-2.99349 1.94621,-5.99093 2.5023,-6.66098 0.68853,-0.82961 0.65482,-1.43844 -0.10566,-1.90844 -0.6142,-0.3796 -0.90197,-1.24982 -0.6395,-1.93382 0.26248,-0.684 -0.38184,-1.86283 -1.43182,-2.61961 -2.66135,-1.91819 -2.38049,-5.41846 0.62445,-7.78215 1.48064,-1.16467 2.104,-2.2583 1.5,-2.63159 C 289.46508,132.1694 289,130.14118 289,128.01356 c 0,-2.93523 0.60307,-4.34278 2.5,-5.8349 1.93692,-1.52358 2.5,-2.88554 2.5,-6.0469 0,-3.5071 0.41452,-4.29476 2.95034,-5.60608 1.62269,-0.83912 3.59954,-1.52568 4.39301,-1.52568 0.79347,0 1.70169,-0.675 2.01828,-1.5 0.39386,-1.0264 1.99902,-1.5 5.08393,-1.5 5.64328,0 8.15627,2.97842 7.12976,8.45023 -0.35691,1.90247 -0.20287,4.26696 0.34231,5.25441 1.87761,3.40079 5.08237,11.55234 5.08237,12.92738 0,0.75778 1.125,3.7098 2.5,6.56004 1.375,2.85023 2.5,6.91248 2.5,9.02721 0,4.20141 -2.15953,10.19454 -4.67501,12.97412 -0.94781,1.04731 -1.6448,3.70871 -1.71187,6.5366 L 319.5,172.5 l -3.73878,-0.2188 c -3.23073,-0.18907 -3.82337,0.11825 -4.36131,2.26159 -0.3424,1.36421 0.10255,4.69722 0.98877,7.40669 1.99175,6.0894 2.01926,8.12892 0.14312,10.60939 -0.8075,1.06762 -1.4825,3.11583 -1.5,4.55158 -0.0175,1.43575 -1.11595,4.20804 -2.44103,6.16065 l -2.40922,3.55019 2.40922,4.75884 c 3.60461,7.12001 3.10379,10.90283 -1.53166,11.56905 -1.77463,0.25506 -2.66409,1.21685 -3.25858,3.52358 -0.94214,3.65567 -7.85205,9.65242 -10.53966,9.14682 -0.96848,-0.1822 -2.20508,-1.34113 -2.748,-2.57542 -1.522,-3.46015 -5.02565,-2.91432 -6.45635,1.00584 -2.58544,7.08415 -3.5174,8.25 -6.59486,8.25 -2.68725,0 -3.018,-0.37061 -3.56975,-4 -0.33446,-2.2 -0.67196,-3.06594 -0.75,-1.92431 -0.0781,1.14162 -1.15441,2.99784 -2.39191,4.12492 -1.99049,1.81288 -3.40535,2.02624 -12.26724,1.84987 -7.74073,-0.15405 -10.64539,-0.61093 -12.78121,-2.01038 -3.64931,-2.39112 -4.75224,-1.15441 -1.35421,1.51848 4.27119,3.35972 3.15961,7.32088 -2.2718,8.0956 -1.44128,0.20558 -3.096,1.56239 -4.08046,3.34582 -1.07801,1.9529 -2.67169,3.17737 -4.56598,3.50816 -1.91585,0.33457 -3.36862,1.46509 -4.2525,3.30924 -0.73838,1.54059 -2.45344,3.30724 -3.81123,3.92589 -2.12401,0.96777 -2.80401,0.78496 -4.87009,-1.30923 -1.32076,-1.33873 -3.09751,-3.0143 -3.94833,-3.72349 C 215.69613,258.50139 215,256.60301 215,254.99196 c 0,-2.19288 -0.37705,-2.7845 -1.5,-2.35359 -0.825,0.31659 -1.5,1.11181 -1.5,1.76717 0,0.65536 -1.80749,3.07263 -4.01665,5.3717 -2.20915,2.29908 -4.44802,5.31473 -4.97525,6.70145 -1.28128,3.37002 -3.59199,3.17827 -7.11226,-0.5902 l -2.90659,-3.11151 -3.9975,3.61151 C 186.79312,268.37482 184.54553,270 183.99712,270 183.4487,270 183,271.5199 183,273.37756 c 0,1.85765 -0.58932,3.86665 -1.30961,4.46443 -1.33383,1.10698 -4.86288,0.49759 -7.77156,-1.34199 C 172.04216,275.31312 169,269.41473 169,266.96299 c 0,-0.95135 -0.9,-1.96508 -2,-2.25274 -3.11252,-0.81394 -2.35719,-3.53417 1.41951,-5.11217 1.88073,-0.78582 3.96071,-2.47936 4.62219,-3.76342 0.66147,-1.28406 2.35688,-3.57216 3.76758,-5.08466 1.75092,-1.87727 2.10883,-2.75433 1.12781,-2.76365 -0.7904,-0.008 -2.44959,-0.285 -3.68709,-0.61664 -1.87898,-0.50354 -2.25,-0.20447 -2.25,1.81366 0,3.55592 -1.84091,4.81663 -7.03333,4.81663 -5.55116,0 -6.67929,0.81256 -3.86494,2.78381 1.52037,1.06491 1.9745,2.24343 1.66833,4.32949 -0.3037,2.06924 0.22594,3.47377 1.90463,5.05081 2.31068,2.17078 3.38374,8.83589 1.42255,8.83589 -1.3549,0 -8.09724,10.56184 -8.09724,12.68428 0,2.16179 -3.67663,9.32522 -5.54202,10.79789 -0.70909,0.5598 -1.44432,1.91783 -1.63384,3.01783 -0.53241,3.09026 -4.60448,3.20794 -5.76084,0.16648 -1.4546,-3.82587 -2.87459,-4.04163 -2.71024,-0.4118 0.12677,2.79978 -0.21143,3.28691 -2.46341,3.54827 -1.68665,0.19574 -3.72135,-0.6319 -5.75,-2.3389 z m 5.07128,-9.21405 c 1.69777,-2.0525 4.62863,-1.4245 6.47043,1.38644 l 1.72746,2.63644 2.7885,-3.34017 c 1.53367,-1.83709 3.08458,-4.93599 3.44645,-6.88644 0.70839,-3.81806 2.09974,-6.38768 6.69242,-12.35994 l 2.93272,-3.81367 -3.26091,-3.36441 c -2.49788,-2.57716 -3.11915,-3.92926 -2.65505,-5.77837 0.487,-1.94035 0.0704,-2.67713 -2.12354,-3.75532 -1.50118,-0.73775 -3.66795,-2.41097 -4.81506,-3.71826 -2.65402,-3.02465 -5.62825,-2.39612 -10.91408,2.30645 -2.61845,2.32951 -4.85242,3.43742 -6.93192,3.43778 -2.90348,5e-4 -3.0609,0.202 -2.92965,3.75 0.34985,9.45786 0.24901,9.09159 2.35171,8.54173 1.53783,-0.40216 1.85195,-1.07217 1.38148,-2.94668 -0.74477,-2.9674 1.97498,-6.34558 5.10878,-6.34558 3.36407,0 6.68269,4.26967 7.25328,9.33193 0.46585,4.13309 0.20349,4.78063 -3.61582,8.92409 -2.92617,3.17452 -4.11813,5.34052 -4.11813,7.48337 0,1.65864 -0.675,3.57592 -1.5,4.26061 -1.826,1.51544 -1.93862,4.15675 -0.25,5.86321 1.00355,1.01415 1.31674,0.70855 1.58849,-1.55 0.18616,-1.54727 0.80376,-3.37571 1.37244,-4.06321 z M 179,271.02568 c 0,-2.22983 0.68834,-3.33386 2.75,-4.41072 1.5125,-0.79003 4.07169,-2.82658 5.68709,-4.52568 3.39797,-3.57404 7.38215,-4.05149 9.96769,-1.1945 1.67819,1.85438 1.76145,1.8468 3.90499,-0.35545 6.76332,-6.94859 6.91469,-7.20705 5.52438,-9.43329 C 205.75477,249.37768 204.52858,249 199.99658,249 c -4.7677,0 -5.65721,0.30746 -6.50945,2.25 -0.76632,1.7467 -1.95434,2.31959 -5.31103,2.56111 -2.37815,0.17111 -4.89735,-0.1648 -5.59821,-0.74647 -1.35316,-1.12302 -2.10881,-0.45875 -6.18304,5.43536 -3.60624,5.21707 -3.62613,8.73586 -0.0806,14.25 1.40122,2.1792 2.68571,1.35451 2.68571,-1.72432 z m 49.58581,-16.91452 c 1.51385,-1.19079 3.23884,-2.00135 3.83332,-1.80125 0.59448,0.20011 1.62482,-0.9203 2.28964,-2.48979 0.84673,-1.99892 2.15982,-3.04384 4.38406,-3.48869 l 3.17529,-0.63505 -2.63406,-1.38013 c -1.44873,-0.75907 -2.62728,-1.92825 -2.619,-2.59819 0.0243,-1.9627 2.55602,-8.68914 3.70173,-9.83485 1.71408,-1.71408 5.74867,-0.62434 6.07308,1.64033 0.39399,2.75028 4.33301,4.19893 12.89809,4.74352 7.25759,0.46145 9.31204,-0.23094 9.31204,-3.13832 0,-4.15395 8.26342,-7.21182 9.65923,-3.57439 0.46139,1.20237 1.01707,0.86271 2.45391,-1.5 1.18048,-1.94114 2.68287,-3.06224 4.12216,-3.07599 1.56458,-0.0149 2.72842,-1.01967 3.7647,-3.25 1.62611,-3.49979 5.08892,-4.72938 7.55504,-2.68268 2.00849,1.6669 1.80354,4.23486 -0.55504,6.95432 -2.61344,3.01332 -2.5313,3.59317 0.25,1.765 1.2375,-0.81342 2.74459,-3.00581 3.34909,-4.87197 0.70099,-2.16407 2.23404,-3.97797 4.23256,-5.00799 l 3.13348,-1.61495 -2.47838,-4.88505 C 301.97931,208.44271 301.18665,203 302.97432,203 304.28453,203 307,197.61347 307,195.01448 c 0,-1.14667 0.65803,-3.08913 1.46229,-4.31658 1.27103,-1.93984 1.27677,-2.75271 0.0439,-6.21482 C 305.3724,175.68293 307.42881,168 312.91803,168 c 2.44446,0 2.7439,-0.31768 2.33172,-2.47383 -0.31835,-1.66534 0.53801,-4.00001 2.62033,-7.14374 4.52711,-6.83468 4.88274,-10.28696 1.74285,-16.91851 C 318.17582,138.4287 317,135.33983 317,134.59978 c 0,-1.50486 -3.28674,-9.61012 -5.63401,-13.89374 -1.11735,-2.03909 -1.27986,-3.52507 -0.60147,-5.5 C 311.9455,111.76793 311.33803,110 308.97568,110 c -2.18336,0 -3.45298,1.58698 -1.99199,2.48992 0.55897,0.34546 1.01631,1.69623 1.01631,3.00171 0,4.36646 -6.70891,4.54688 -8.78932,0.23637 -0.93491,-1.93709 -1.08416,-1.6108 -1.143,2.49895 -0.0558,3.89798 -0.5061,5.01421 -2.56768,6.36501 -2.83846,1.85983 -3.23493,4.55321 -0.94944,6.45 2.38853,1.9823 1.43627,6.26361 -1.55056,6.97125 l -2.5,0.5923 2.81164,1.85265 c 2.56154,1.68784 2.75163,2.21687 2.13694,5.94724 -0.37109,2.25203 -1.05696,4.57038 -1.52416,5.1519 -0.4672,0.58151 -1.5205,3.50651 -2.34068,6.5 -3.82799,13.97143 -6.91402,20.56481 -10.70417,22.86974 -1.63291,0.99303 -4.08581,3.31937 -5.4509,5.16964 -2.83725,3.84568 -9.90373,8.90332 -12.4396,8.90332 -0.94049,0 -3.46027,1.19273 -5.59952,2.65052 -2.22852,1.51861 -5.38422,2.693 -7.38955,2.75 l -3.5,0.0995 0.25827,-4.9075 c 0.14205,-2.69913 0.76867,-5.5225 1.3925,-6.27417 1.85208,-2.23162 0.18734,-2.65894 -2.59696,-0.6666 -2.17383,1.55549 -2.49063,2.38259 -1.99998,5.2214 0.46926,2.71509 0.0304,4.08068 -2.24978,7 -6.56514,8.40548 -8.66559,12.16533 -7.46625,13.36467 0.63921,0.63921 1.1622,2.21319 1.1622,3.49774 0,1.82187 -1.00794,2.76759 -4.58291,4.3 -4.85423,2.08077 -9.39282,2.53465 -10.96709,1.09676 -0.53736,-0.4908 -6.16228,-0.44185 -12.95,0.11271 -6.6,0.53921 -14.925,1.08443 -18.5,1.21158 -8.99487,0.31992 -8.57175,0.19219 -12.11691,3.65769 -1.75222,1.71285 -4.58024,3.71172 -6.28447,4.44192 -1.70424,0.73021 -5.01203,3.15378 -7.35064,5.38573 -2.36021,2.25254 -5.2522,4.06488 -6.5,4.07338 -2.79978,0.0191 -4.13442,0.88766 -5.57726,3.62968 -1.97244,3.74848 1.05668,4.83898 12.51592,4.50581 5.08459,-0.14783 5.19281,-0.21475 5.5,-3.4008 0.30919,-3.20673 0.37992,-3.2487 5.31336,-3.15209 3.03735,0.0595 5.2931,-0.39401 5.74669,-1.15529 0.48913,-0.82093 2.09657,-1.07214 4.66017,-0.72829 2.689,0.36067 4.63699,0.0182 6.22582,-1.09471 1.27178,-0.89079 3.53565,-1.61962 5.03081,-1.61962 1.49516,0 3.01582,-0.48111 3.37923,-1.06912 0.36342,-0.58802 2.30247,-0.96379 4.30902,-0.83505 2.00654,0.12874 5.12919,-0.10495 6.93922,-0.51933 2.16958,-0.49668 3.80154,-0.32966 4.78939,0.49018 1.29077,1.07125 0.93864,1.76559 -2.54096,5.01026 -3.58941,3.34707 -5.66098,7.04329 -3.03939,5.42306 0.55,-0.33992 1,-0.0864 1,0.56343 0,0.88042 0.3822,0.86426 1.5,-0.0634 0.825,-0.68469 1.5,-2.01135 1.5,-2.94813 0,-2.39656 4.56071,-6.43442 6.44912,-5.70977 1.73469,0.66567 2.1579,6.1647 0.55088,7.1579 -0.55,0.33992 -1,2.48707 -1,4.77145 0,3.33136 0.54429,4.58857 2.75,6.35197 2.55577,2.04327 2.79709,2.07334 3.41668,0.42568 0.36668,-0.97507 1.90529,-2.74715 3.41913,-3.93794 z M 190.51287,247.75 c 0.83921,-1.91284 1.88104,-2.2959 6.95254,-2.55633 5.68643,-0.29201 8.53459,-1.39866 8.53459,-3.31611 0,-1.21385 -4.73934,-1.10834 -5.5,0.12244 -0.33992,0.55 -1.85547,1 -3.36789,1 -1.51242,0 -3.62336,0.66069 -4.69098,1.4682 -1.06762,0.8075 -3.77863,1.4825 -6.02446,1.5 -5.01172,0.039 -6.12651,0.95411 -3.16074,2.59449 3.54892,1.96294 6.16788,1.66964 7.25694,-0.81269 z M 291.11694,108.64091 c -0.75379,-0.90827 -1.1619,-3.58749 -1.00287,-6.58383 0.2188,-4.122306 -0.13518,-5.428086 -1.92296,-7.093657 -4.07218,-3.793817 -2.54713,-9.443214 3.5993,-13.333202 3.45137,-2.184328 3.70763,-2.684493 3.70858,-7.238344 9.9e-4,-4.785156 0.0717,-4.898699 3.24242,-5.204595 1.78278,-0.171995 4.19694,0.356558 5.36481,1.174561 3.49569,2.448482 4.89378,1.043151 4.89378,-4.919142 0,-3.60431 0.46741,-5.604895 1.43616,-6.147039 1.89721,-1.061729 2.50575,-17.803688 0.76259,-20.979921 C 308.43817,33.285659 311.16255,28 316.51578,28 c 2.03229,0 8.71099,6.329996 13.46952,12.766249 3.6837,4.982473 13.06841,11.137301 16.09861,10.558042 1.58343,-0.302692 3.03095,0.109186 3.84935,1.095296 2.33002,2.807499 5.36449,1.77725 8.89462,-3.019857 3.7845,-5.142778 5.557,-6.155127 7.68485,-4.389161 2.07286,1.720314 1.85456,4.707045 -0.56925,7.78842 -2.23612,2.842764 -2.02532,5.62028 0.74777,9.852546 1.29554,1.977243 2.14532,2.323633 4.45563,1.816205 4.31049,-0.946743 5.06246,2.142802 1.27147,5.223997 -6.6216,5.381821 -11.61481,8.078822 -16.13952,8.717496 -7.08054,0.999433 -10.93882,4.745282 -13.07756,12.696473 -1.62696,6.048551 -1.89392,6.411143 -4.93722,6.705908 -2.22952,0.215944 -4.98978,-0.709343 -8.99066,-3.013828 -3.17536,-1.828993 -7.46968,-4.213784 -9.54292,-5.299536 l -3.76953,-1.974094 -4.23047,2.2407 c -4.91639,2.604002 -7.01968,2.796516 -8.68114,0.794585 -0.65756,-0.792308 -1.8348,-1.19526 -2.61609,-0.895449 -1.15592,0.443569 -1.03648,1.084465 0.64121,3.440559 1.13395,1.592497 2.681,2.895449 3.43788,2.895449 0.75688,0 2.60159,1.054088 4.09937,2.342417 3.70785,3.189363 2.7076,5.657583 -2.29275,5.657583 -2.78224,0 -4.26716,0.64163 -5.78139,2.49813 -2.55515,3.13272 -7.6393,4.28914 -9.42062,2.14278 z M 297,103.37157 c 0,-0.77795 1.03583,-1.8864 2.30184,-2.46324 l 2.30185,-1.048787 -3.30185,-3.500974 C 296.47795,94.424684 295,91.795811 295,90.485502 c 0,-4.403387 7.26457,-7.281491 10.01478,-3.967692 1.11704,1.345953 1.6469,1.28934 4.67961,-0.5 3.56342,-2.10247 9.21752,-2.678406 10.85561,-1.105771 0.5225,0.501622 3.65,2.316794 6.95,4.033716 3.3,1.716922 6.80031,3.669004 7.77847,4.337961 2.20476,1.507828 3.3218,0.04175 4.27731,-5.613854 0.45481,-2.691992 1.96047,-5.196268 4.94334,-8.221981 3.65906,-3.711609 5.07631,-4.451216 9.64511,-5.033408 5.44129,-0.693372 6.90354,-1.242315 10.20687,-3.831757 1.7818,-1.396729 1.75403,-1.578329 -0.7417,-4.850398 -1.42604,-1.869639 -2.87521,-4.81137 -3.22037,-6.537182 -0.5534,-2.76701 -0.86329,-3.011687 -2.62215,-2.070374 -1.09702,0.587107 -3.40585,0.812349 -5.13073,0.500539 -1.72488,-0.311811 -4.91249,-0.864667 -7.08357,-1.228569 -4.58076,-0.767795 -15.45101,-8.320119 -20.24825,-14.067878 -8.07044,-9.669497 -9.2496,-10.783588 -10.3008,-9.732382 -0.73257,0.73257 -0.60011,2.124806 0.43872,4.611064 1.90754,4.565396 1.05051,23.666143 -1.09888,24.490944 C 313.454,62.03976 313,63.995216 313,67.484544 c 0,3.016423 -0.53461,5.698276 -1.25,6.270622 -2.59657,2.077371 -5.79355,2.369593 -8.91081,0.814498 C 301.10863,73.706349 299.56515,73 299.40923,73 c -0.15592,0 -0.025,1.592756 0.29089,3.539458 0.45705,2.816507 0.10222,4.042034 -1.73719,6 C 296.69157,83.892756 295.06519,85 294.34874,85 c -0.71645,0 -2.05294,1.145106 -2.96997,2.54468 -1.60857,2.454992 -1.57227,2.643908 1.02995,5.360047 2.46276,2.570562 2.63779,3.263959 2.01293,7.974343 -0.59947,4.51909 -0.48202,5.08132 0.947,4.53296 0.89724,-0.3443 1.63135,-1.26251 1.63135,-2.04046 z"
         style="fill:#000000" />
    </g>
  </g>
</svg>
